SplineFontDB: 3.0
FontName: xkcd-Regular
FullName: xkcd Regular
FamilyName: xkcd
Weight: Roman
Copyright: xkcd is licensed under the Creative Commons Attribution-NonCommercial 3.0 License
Version: 001.001
ItalicAngle: 0
UnderlinePosition: -50
UnderlineWidth: 50
Ascent: 980
Descent: 20
sfntRevision: 0x00010000
LayerCount: 2
Layer: 0 0 "Back"  1
Layer: 1 0 "Fore"  0
XUID: [1021 721 1272060522 8893296]
FSType: 4
OS2Version: 3
OS2_WeightWidthSlopeOnly: 0
OS2_UseTypoMetrics: 1
CreationTime: 1334520000
ModificationTime: 1364729760
PfmFamily: 81
TTFWeight: 400
TTFWidth: 5
LineGap: 0
VLineGap: 0
Panose: 0 0 0 0 0 0 0 0 0 0
OS2TypoAscent: 980
OS2TypoAOffset: 0
OS2TypoDescent: -20
OS2TypoDOffset: 0
OS2TypoLinegap: 200
OS2WinAscent: 1173
OS2WinAOffset: 0
OS2WinDescent: 27
OS2WinDOffset: 0
HheadAscent: 1080
HheadAOffset: 0
HheadDescent: -120
HheadDOffset: 0
OS2SubXSize: 650
OS2SubYSize: 600
OS2SubXOff: 0
OS2SubYOff: 75
OS2SupXSize: 650
OS2SupYSize: 600
OS2SupXOff: 0
OS2SupYOff: 350
OS2StrikeYSize: 50
OS2StrikeYPos: 483
OS2Vendor: 'PYRS'
OS2CodePages: 00000001.00000000
OS2UnicodeRanges: 00000001.00000000.00000000.00000000
Lookup: 258 0 0 "'kern' Horizontal Kerning in Latin lookup 0"  {"'kern' Horizontal Kerning in Latin lookup 0 subtable"  } ['kern' ('DFLT' <'dflt' > 'latn' <'dflt' > ) ]
DEI: 91125
LangName: 1033 "Copyright (c) 2013 by xkcd. All rights reserved." "" "" "1.000;PYRS;xkcd-Regular" "xkcd-Regular" "Version 1.000;PS 001.001;hotconv 1.0.56" "" "Copyright (c) 2013 by xkcd. All rights reserved." "" "" "Copyright (c) 2013 by xkcd. All rights reserved."
Encoding: UnicodeBmp
UnicodeInterp: none
NameList: Adobe Glyph List
DisplaySize: -24
AntiAlias: 1
FitToEm: 1
WinInfo: 64 16 4
BeginPrivate: 6
BlueValues 15 [-17 4 789 812]
BlueScale 8 0.039625
StdHW 5 [109]
StdVW 5 [122]
StemSnapV 8 [98 122]
ExpansionFactor 4 0.06
EndPrivate
BeginChars: 65537 108

StartChar: .notdef
Encoding: 65536 -1 0
Width: 500
Flags: MW
HStem: 0 62 917 63
VStem: 62 63 375 62
LayerCount: 2
Fore
SplineSet
125 63 m 1
 375 63 l 1
 375 918 l 1
 125 918 l 1
 125 63 l 1
63 0 m 1
 63 980 l 1
 438 980 l 1
 438 0 l 1
 63 0 l 1
EndSplineSet
EndChar

StartChar: exclam
Encoding: 33 33 2
Width: 193
Flags: MW
HStem: -8 110
VStem: 40 111 53 99
LayerCount: 2
Fore
SplineSet
51 18 m 0xa0
 34 42 35 77 77 96 c 0
 141 124 176 40 134 6 c 0
 104 -18 68 -5 51 18 c 0xa0
146 331 m 0
 147 306 148 249 139 216 c 0
 135 199 130 191 123 187 c 0
 120 185 117 184 113 183 c 0
 109 182 106 182 101 180 c 0
 67 170 54 222 54 232 c 0
 55 407 32 569 40 741 c 0xc0
 40 750 42 780 51 788 c 0
 64 800 135 803 146 790 c 0
 154 781 155 751 155 721 c 0
 155 691 153 658 152 642 c 0
 148 538 144 443 146 331 c 0
EndSplineSet
EndChar

StartChar: quotedbl
Encoding: 34 34 3
Width: 303
Flags: MW
HStem: 541 248
VStem: 56 99 189 98
LayerCount: 2
Fore
SplineSet
93 542 m 0
 58 542 51 606 56 666 c 0
 61 725 79 789 102 789 c 0
 107 789 112 789 117 789 c 0
 130 790 145 790 150 775 c 0
 171 712 139 542 93 542 c 0
229 542 m 0
 188 542 182 607 190 666 c 0
 197 725 219 790 240 790 c 0
 255 790 270 789 277 774 c 0
 307 715 264 542 229 542 c 0
EndSplineSet
EndChar

StartChar: numbersign
Encoding: 35 35 4
Width: 698
Flags: MW
HStem: 285 96 287 97 288 92 456 94 458 95
VStem: 42 670
LayerCount: 2
Fore
SplineSet
341 459 m 1x94
 336 433 331 407 326 381 c 1
 359 381 389 382 419 383 c 1
 424 408 428 433 433 459 c 1
 402 459 372 459 341 459 c 1x94
697 303 m 0
 678 289 659 285 641 285 c 0x94
 622 284 604 287 584 287 c 0x54
 552 288 519 288 484 289 c 1
 478 250 472 213 466 176 c 0
 462 148 463 110 455 77 c 0
 447 44 431 15 394 8 c 0
 353 0 358 73 361 85 c 0
 375 151 389 220 402 289 c 1
 371 289 341 288 310 288 c 1x34
 304 250 297 212 292 176 c 0
 288 148 288 110 281 77 c 0
 273 44 257 15 220 8 c 0
 179 0 184 73 187 85 c 0
 202 151 215 218 227 286 c 1
 202 285 178 284 154 283 c 0
 139 282 126 281 114 281 c 0
 102 281 91 281 82 284 c 0
 62 289 48 304 42 335 c 0
 34 380 146 384 158 383 c 0
 190 382 218 381 244 381 c 1
 249 406 253 431 258 457 c 1
 236 456 214 455 191 454 c 0
 177 454 162 451 148 449 c 0
 133 447 119 445 105 445 c 0
 78 446 54 458 43 498 c 0
 31 542 117 553 130 553 c 0x8c
 186 551 233 550 275 550 c 1x94
 287 616 299 681 312 744 c 0
 314 755 323 775 335 782 c 0
 353 793 382 782 391 762 c 0
 399 742 395 711 389 682 c 0
 383 652 373 622 369 602 c 2
 359 552 l 1
 389 552 418 553 450 554 c 1
 461 618 472 682 486 744 c 0
 488 755 498 775 510 782 c 0
 527 793 557 782 565 762 c 0
 573 742 569 711 563 682 c 0
 556 652 548 622 544 602 c 0
 541 587 537 570 534 554 c 1
 564 554 596 554 633 553 c 0
 644 553 691 548 700 537 c 1
 712 520 721 485 701 471 c 0
 682 457 663 453 644 453 c 0
 625 453 606 457 586 457 c 0
 562 457 539 458 515 458 c 1
 511 434 506 409 501 384 c 1x4c
 545 385 593 385 654 383 c 0
 659 383 669 384 679 383 c 0
 689 382 700 380 705 373 c 0
 717 356 716 317 697 303 c 0
EndSplineSet
EndChar

StartChar: dollar
Encoding: 36 36 5
Width: 615
Flags: MW
HStem: 32 111
VStem: 42 113 216 115 217 101 366 101 370 98 463 9 525 100
LayerCount: 2
Fore
SplineSet
324 335 m 1xe5
 322 292 320 249 319 210 c 0
 318 196 320 165 321 147 c 1
 329 146 351 144 361 144 c 1
 359 201 369 272 371 332 c 1
 358 332 336 335 324 335 c 1xe5
214 591 m 0
 214 598 213 605 213 610 c 1
 171 587 107 492 215 443 c 1
 217 460 217 484 216 508 c 0
 216 532 214 556 215 570 c 0
 215 573 214 582 214 591 c 0
464 343 m 1
 463 382 464 404 465 414 c 0
 465 415 465 420 466 421 c 0
 469 424 471 421 471 421 c 1
 471 420 472 416 472 409 c 0xe3
 474 385 474 321 468 240 c 0
 468 233 466 217 464 200 c 0
 462 185 460 170 460 160 c 1
 506 189 522 217 525 242 c 0
 527 255 526 267 523 279 c 0
 521 291 517 302 515 311 c 0
 512 321 484 337 464 343 c 1
366 585 m 0xe9
 367 591 366 597 366 604 c 1
 354 609 342 613 330 615 c 1
 331 565 332 496 331 444 c 1
 336 445 343 444 350 444 c 1
 356 443 363 443 367 442 c 1
 368 484 365 547 366 585 c 0xe9
468 55 m 1xe5
 464 36 457 21 445 15 c 0
 411 -1 390 11 378 34 c 1
 365 33 331 30 318 31 c 1
 314 15 305 2 291 -3 c 0
 239 -22 216 10 207 59 c 1
 123 91 32 148 33 186 c 0
 33 200 79 240 105 237 c 0
 124 234 143 224 162 213 c 0
 180 202 197 191 213 183 c 1
 215 210 216 250 217 270 c 0xd5
 217 288 217 312 216 337 c 1
 114 350 34 448 42 514 c 0
 51 582 119 683 216 724 c 1
 217 743 215 761 216 775 c 0
 217 789 221 801 234 803 c 0
 281 812 302 807 311 793 c 0
 316 786 318 777 319 768 c 0
 320 759 320 749 322 738 c 1
 335 737 348 735 362 732 c 1
 365 759 372 781 392 789 c 0
 451 811 469 761 472 697 c 1xe3
 534 670 585 631 585 586 c 0
 585 571 559 537 532 536 c 0
 514 536 493 544 469 556 c 1
 469 545 468 535 468 525 c 0
 468 506 470 465 470 437 c 1
 533 422 596 389 613 335 c 0
 658 189 579 96 468 55 c 1xe5
EndSplineSet
EndChar

StartChar: percent
Encoding: 37 37 6
Width: 796
Flags: MW
HStem: -6 92 391 97 695 92 792 8
VStem: 39 86 298 84 460 86 638 43 708 88
LayerCount: 2
Fore
SplineSet
225 696 m 0
 215 695 169 676 152 643 c 0
 133 606 112 538 141 508 c 0
 167 480 243 480 273 520 c 0
 314 573 312 701 225 696 c 0
668 300 m 0
 633 316 563 287 550 239 c 0
 532 174 581 57 660 94 c 0
 670 99 705 133 709 170 c 0
 713 212 706 283 668 300 c 0
313 426 m 0
 217 363 73 388 47 496 c 0
 13 635 116 770 184 783 c 0
 275 801 347 759 371 707 c 0
 401 640 376 467 313 426 c 0
639 798 m 1
 641 798 639 796 639 796 c 1
 636 795 l 1
 628 794 l 1
 619 793 l 1
 617 792 l 1
 616 792 l 1
 616 795 l 1
 616 795 614 797 616 797 c 0
 677 808 688 770 681 725 c 0
 674 681 649 630 633 608 c 0
 540 479 421 315 325 164 c 0
 308 138 288 93 265 55 c 0
 241 17 212 -15 177 -14 c 0
 133 -13 124 15 143 67 c 0
 155 100 183 145 214 191 c 0
 245 237 278 283 298 316 c 0
 338 382 419 496 464 563 c 0
 484 594 512 646 542 694 c 0
 572 742 606 786 638 800 c 1
 638 800 640 799 639 798 c 1
731 28 m 0
 653 -22 571 -11 530 29 c 0
 477 80 435 250 478 312 c 0
 543 406 686 436 751 346 c 0
 835 230 789 66 731 28 c 0
EndSplineSet
EndChar

StartChar: ampersand
Encoding: 38 38 7
Width: 647
Flags: MW
HStem: -13 101
VStem: 46 112 336 96
LayerCount: 2
Fore
SplineSet
320 234 m 0
 312 241 303 250 295 259 c 0
 287 269 279 278 270 287 c 0
 253 304 236 316 220 312 c 0
 193 304 139 198 165 148 c 0
 210 60 393 73 378 163 c 0
 377 167 341 216 320 234 c 0
214 700 m 0
 184 694 134 624 145 577 c 0
 149 562 229 473 240 472 c 0
 268 468 332 556 337 587 c 0
 347 648 273 711 214 700 c 0
648 16 m 0
 645 14 643 13 640 10 c 0
 637 8 633 4 628 -1 c 0
 612 -18 580 4 552 26 c 0
 537 38 523 50 512 60 c 0
 500 71 492 78 489 80 c 0
 481 83 466 70 451 56 c 0
 443 48 434 40 427 33 c 0
 420 26 413 21 408 18 c 0
 363 -7 295 -18 228 -9 c 0
 150 1 50 86 47 174 c 0
 45 227 69 282 94 325 c 0
 106 346 119 365 129 379 c 0
 138 393 144 402 144 404 c 0
 144 408 138 415 128 427 c 0
 118 438 105 451 92 468 c 0
 66 503 40 550 41 612 c 0
 42 663 95 756 144 779 c 0
 163 788 193 792 215 794 c 0
 253 798 332 774 362 754 c 0
 467 684 443 505 369 425 c 0
 365 421 360 417 354 413 c 0
 348 409 342 405 337 401 c 0
 327 393 319 386 324 378 c 1
 333 367 367 329 401 296 c 0
 417 280 434 265 446 254 c 1
 453 249 458 245 462 243 c 0
 464 241 465 239 466 240 c 0
 471 249 519 321 530 324 c 0
 553 329 609 295 613 275 c 0
 615 266 611 257 606 247 c 1
 600 238 592 227 584 217 c 0
 567 195 552 174 554 156 c 0
 557 138 581 121 595 111 c 0
 602 106 610 102 617 97 c 0
 645 79 674 59 663 36 c 0
 657 23 653 19 648 16 c 0
EndSplineSet
EndChar

StartChar: parenleft
Encoding: 40 40 8
Width: 309
Flags: MW
HStem: -49 906
VStem: 30 112
LayerCount: 2
Fore
SplineSet
218 -39 m 0
 130 6 69 141 44 262 c 0
 7 435 49 656 125 763 c 0
 143 789 200 849 235 856 c 0
 273 864 311 843 309 808 c 0
 308 784 289 762 269 742 c 0
 258 732 248 723 238 714 c 0
 229 706 221 698 216 690 c 0
 191 653 168 572 157 531 c 0
 110 346 179 139 287 52 c 0
 294 46 303 42 311 38 c 0
 319 34 326 28 329 20 c 0
 345 -38 264 -63 218 -39 c 0
EndSplineSet
EndChar

StartChar: parenright
Encoding: 41 41 9
Width: 305
Flags: MW
HStem: -71 930
VStem: 186 114
LayerCount: 2
Fore
SplineSet
233 93 m 0
 218 62 202 32 185 -1 c 0
 172 -27 134 -57 100 -67 c 0
 65 -78 31 -68 30 -16 c 0
 29 7 47 27 66 45 c 0
 75 53 85 62 93 69 c 0
 102 77 109 84 112 91 c 0
 185 223 215 429 155 620 c 0
 149 638 144 659 137 678 c 0
 130 697 121 714 109 724 c 0
 108 725 107 726 105 727 c 2
 99 731 l 2
 81 743 61 759 46 777 c 0
 24 803 16 835 67 857 c 0
 107 874 160 816 184 788 c 0
 193 778 200 769 203 766 c 0
 304 662 326 419 272 201 c 0
 262 159 248 125 233 93 c 0
EndSplineSet
EndChar

StartChar: asterisk
Encoding: 42 42 10
Width: 348
Flags: MW
HStem: 515 224 607 144
VStem: 38 307
LayerCount: 2
Fore
SplineSet
305 607 m 0
 299 608 291 609 284 607 c 1
 279 607 276 604 275 598 c 0
 273 587 282 575 292 562 c 0
 297 555 302 549 306 543 c 0
 310 536 313 530 313 524 c 0
 313 510 304 506 293 505 c 0
 289 505 286 505 283 505 c 0
 262 504 252 525 242 539 c 0
 238 546 232 554 223 553 c 0
 217 553 214 549 213 541 c 0
 212 538 212 533 212 529 c 0
 211 524 211 519 211 514 c 0
 211 495 208 472 182 474 c 0
 165 475 161 496 158 513 c 0
 156 522 155 531 153 537 c 1
 152 545 149 548 146 549 c 0
 143 549 139 546 135 541 c 1
 129 536 123 530 117 525 c 0
 105 514 91 508 83 533 c 0
 79 546 83 556 88 565 c 0
 93 573 98 581 96 591 c 0
 95 593 93 595 87 596 c 0
 81 598 74 598 67 599 c 0
 53 602 37 606 38 626 c 0
 39 642 54 647 67 650 c 0
 73 652 80 654 85 656 c 0
 91 659 94 662 95 666 c 0
 95 668 94 670 92 674 c 0
 90 677 87 681 84 685 c 0
 78 694 71 705 73 719 c 0
 77 747 95 742 110 733 c 0
 118 728 126 723 134 718 c 0
 141 713 147 711 150 712 c 0
 157 714 158 720 157 732 c 0
 156 745 153 759 156 772 c 0
 157 780 163 784 171 786 c 0
 173 787 176 788 179 789 c 0
 203 795 208 778 210 762 c 0
 211 754 211 745 213 738 c 0
 214 731 217 727 221 725 c 0
 224 724 229 727 235 731 c 0
 242 735 250 741 258 745 c 0
 275 754 295 758 305 732 c 0
 309 723 299 711 288 698 c 0
 283 692 278 686 274 680 c 0
 270 674 269 670 269 666 c 0
 270 662 275 661 282 660 c 0
 290 659 300 659 310 658 c 0
 329 656 350 651 344 628 c 0
 339 606 321 606 305 607 c 0
EndSplineSet
EndChar

StartChar: plus
Encoding: 43 43 11
Width: 447
Flags: MW
HStem: 351 84
VStem: 200 87 200 90
LayerCount: 2
Fore
SplineSet
370 351 m 0
 355 351 340 351 327 350 c 0
 314 348 303 345 296 338 c 0
 286 327 283 313 283 297 c 0
 283 280 286 263 287 247 c 0
 290 214 286 183 238 184 c 0
 201 184 198 216 200 249 c 0
 201 265 205 283 205 298 c 0
 206 314 204 327 198 335 c 0
 190 347 175 351 157 352 c 0
 138 354 118 351 99 350 c 0
 62 349 30 354 44 408 c 0
 51 434 80 436 109 436 c 0
 124 436 139 435 153 435 c 0
 167 436 179 439 187 444 c 1
 197 452 202 465 202 482 c 0
 203 500 200 520 200 538 c 0
 199 576 205 610 255 604 c 0
 275 601 282 593 285 579 c 0
 288 567 287 550 291 529 c 0
 292 523 292 516 292 508 c 0
 292 501 292 493 291 486 c 1
 291 471 292 459 297 454 c 0
 318 432 342 431 366 433 c 0
 378 434 391 436 402 436 c 0
 414 436 426 435 436 429 c 0
 456 418 452 398 443 380 c 0
 431 353 400 351 370 351 c 0
EndSplineSet
EndChar

StartChar: comma
Encoding: 44 44 12
Width: 180
Flags: MW
HStem: -163 254
VStem: 64 95
LayerCount: 2
Fore
SplineSet
54 -159 m 0
 15 -170 7 -151 10 -118 c 0
 11 -108 16 -99 23 -90 c 0
 29 -81 37 -72 44 -64 c 0
 59 -46 69 -30 61 -13 c 0
 56 -2 32 25 20 32 c 0
 -1 44 2 81 39 91 c 0
 48 93 70 90 80 86 c 0
 243 28 115 -141 54 -159 c 0
EndSplineSet
EndChar

StartChar: hyphen
Encoding: 45 45 13
Width: 303
Flags: MW
HStem: 312 91
VStem: 24 262
LayerCount: 2
Fore
SplineSet
257 316 m 1
 245 313 233 312 220 312 c 0
 209 312 197 313 189 313 c 0
 178 313 162 313 146 313 c 0
 130 313 113 313 101 315 c 0
 92 317 75 316 60 318 c 0
 45 319 30 323 27 335 c 0
 20 362 25 377 33 385 c 0
 41 393 52 395 62 397 c 0
 112 405 167 406 214 401 c 0
 225 400 240 399 253 396 c 0
 266 393 279 388 282 379 c 0
 295 341 280 324 257 316 c 1
EndSplineSet
EndChar

StartChar: period
Encoding: 46 46 14
Width: 174
Flags: MW
HStem: -1 128
VStem: 25 128
LayerCount: 2
Fore
SplineSet
37 30 m 0
 17 57 18 98 67 120 c 0
 141 153 180 54 132 15 c 0
 97 -14 57 2 37 30 c 0
EndSplineSet
EndChar

StartChar: slash
Encoding: 47 47 15
Width: 483
Flags: MW
HStem: -6 819
VStem: 32 477
LayerCount: 2
Fore
SplineSet
480 672 m 0
 463 640 441 609 430 588 c 0
 354 446 269 276 194 120 c 0
 191 113 185 102 179 89 c 0
 156 44 119 -6 63 -6 c 0
 17 -6 34 45 42 59 c 0
 170 289 288 548 413 779 c 0
 419 791 436 810 453 813 c 0
 477 818 506 793 509 766 c 0
 512 739 498 705 480 672 c 0
EndSplineSet
EndChar

StartChar: zero
Encoding: 48 48 16
Width: 654
Flags: MW
HStem: -16 109 692 112
VStem: 31 112 515 107
LayerCount: 2
Fore
SplineSet
435 669 m 0
 410 678 343 694 320 692 c 0
 313 692 307 692 300 689 c 0
 130 627 73 210 259 111 c 0
 312 83 369 87 406 130 c 0
 469 203 513 338 515 456 c 0
 517 540 484 652 435 669 c 0
586 230 m 0
 525 66 415 -77 208 12 c 0
 151 36 60 119 46 184 c 0
 1 399 62 687 192 769 c 0
 219 786 250 796 291 800 c 0
 335 805 360 807 399 801 c 0
 425 797 449 787 473 780 c 0
 533 764 610 632 618 565 c 0
 631 454 620 321 586 230 c 0
EndSplineSet
EndChar

StartChar: one
Encoding: 49 49 17
Width: 244
Flags: MW
HStem: 778 20G
VStem: 41 139 85 107
LayerCount: 2
Fore
SplineSet
180 112 m 0xc0
 179 47 166 -12 101 -8 c 0
 47 -5 38 85 42 148 c 0
 48 247 82 402 85 530 c 0xa0
 86 570 79 634 79 689 c 0
 80 744 89 794 131 799 c 0
 191 806 203 754 205 685 c 0
 209 505 184 291 180 112 c 0xc0
EndSplineSet
EndChar

StartChar: two
Encoding: 50 50 18
Width: 616
Flags: MW
HStem: -12 106 692 109
VStem: 30 553
LayerCount: 2
Fore
SplineSet
506 -13 m 0
 465 -17 416 -12 384 -12 c 0
 330 -12 237 -18 161 -9 c 0
 85 1 22 25 32 86 c 0
 35 103 43 134 55 148 c 0
 113 218 216 329 292 397 c 0
 308 412 327 424 347 439 c 0
 366 453 385 468 402 485 c 0
 436 518 461 558 461 617 c 0
 460 687 371 704 280 685 c 0
 254 679 232 657 214 638 c 0
 207 631 200 623 194 615 c 0
 166 584 139 553 107 550 c 0
 66 546 65 586 66 622 c 0
 69 692 214 802 277 802 c 0
 482 802 602 756 581 597 c 0
 571 517 537 466 495 422 c 0
 474 400 451 381 427 360 c 0
 404 340 380 320 358 296 c 0
 354 292 308 249 264 205 c 0
 219 160 179 116 181 107 c 0
 186 83 374 98 389 100 c 0
 410 102 433 105 455 106 c 0
 477 107 498 108 517 105 c 0
 555 99 584 81 583 38 c 0
 583 2 547 -10 506 -13 c 0
EndSplineSet
EndChar

StartChar: three
Encoding: 51 51 19
Width: 654
Flags: MW
HStem: -16 112 378 103 702 96
VStem: 12 629 521 120
LayerCount: 2
Fore
SplineSet
455 4 m 0
 303 -59 99 45 83 175 c 0
 78 213 94 251 130 255 c 0
 184 261 200 204 216 165 c 0
 221 152 226 142 233 135 c 0
 337 32 547 153 522 274 c 0
 514 310 490 357 438 372 c 0
 416 378 388 379 358 379 c 0
 328 378 296 376 268 377 c 0
 211 378 162 391 164 452 c 0
 165 473 179 494 196 513 c 0
 213 533 233 550 244 564 c 0
 248 568 259 578 272 589 c 0
 285 600 301 614 316 628 c 0
 348 656 372 683 368 693 c 0
 365 702 335 705 299 703 c 0
 264 702 226 696 209 695 c 0
 189 693 165 691 141 689 c 0
 116 687 91 685 70 687 c 0
 28 690 -3 705 21 748 c 0
 39 781 150 799 207 799 c 0
 307 799 390 791 465 799 c 0
 516 804 539 799 542 780 c 0
 544 772 541 760 536 747 c 1
 532 733 525 717 519 699 c 0
 511 676 490 653 469 631 c 0
 448 610 425 591 411 576 c 0
 407 572 401 566 395 560 c 0
 379 545 353 518 357 494 c 0
 359 484 379 482 405 482 c 0
 417 482 430 483 442 483 c 0
 453 483 463 483 468 482 c 0
 593 452 620 378 637 301 c 0
 667 166 542 40 455 4 c 0
EndSplineSet
EndChar

StartChar: four
Encoding: 52 52 20
Width: 586
Flags: MW
HStem: 342 98
VStem: 31 110 396 125<21 32.5 -2 101> 407 132
LayerCount: 2
Fore
SplineSet
527 224 m 0xd0
 522 156 521 41 521 24 c 0
 521 -28 405 -47 396 21 c 0
 393 44 394 72 396 101 c 0xe0
 398 130 401 159 402 183 c 0
 403 219 416 286 398 318 c 0
 376 356 270 340 246 333 c 0
 191 318 84 322 52 343 c 0
 33 355 30 362 30 383 c 0
 30 390 31 398 31 408 c 0
 35 525 66 786 116 805 c 0
 118 805 137 805 139 805 c 0
 141 805 143 804 143 804 c 1
 182 811 202 769 196 733 c 0
 192 706 182 678 172 649 c 0
 163 621 154 593 149 563 c 0
 147 548 142 522 141 498 c 0
 140 474 142 455 151 449 c 0
 185 428 293 448 334 453 c 0
 345 454 359 454 371 454 c 0
 384 455 394 456 399 460 c 0
 408 466 412 488 416 514 c 0
 419 539 420 565 421 576 c 0
 422 585 422 595 421 607 c 0
 420 619 418 632 417 645 c 0
 414 671 412 697 416 712 c 0
 430 774 527 755 537 708 c 0
 543 676 545 630 544 583 c 0
 544 537 541 490 540 457 c 0
 537 390 531 287 527 224 c 0xd0
EndSplineSet
EndChar

StartChar: five
Encoding: 53 53 21
Width: 592
Flags: MW
HStem: -18 104 431 99 694 104 699 99
VStem: 73 97 455 97
LayerCount: 2
Fore
SplineSet
513 668 m 0
 504 667 492 668 478 670 c 0
 464 672 447 674 427 676 c 0
 391 679 341 689 295 694 c 0
 248 700 207 703 190 694 c 0
 173 685 155 518 190 502 c 0
 201 497 227 504 255 513 c 0
 268 517 282 521 294 525 c 0
 306 528 316 531 323 531 c 0
 516 525 584 384 539 165 c 0
 513 38 413 -18 243 -17 c 0
 153 -17 13 84 35 170 c 0
 46 210 68 208 89 193 c 0
 99 186 109 175 117 166 c 0
 126 156 133 147 137 143 c 0
 154 125 193 94 219 90 c 0
 297 77 398 99 421 140 c 0
 507 293 422 444 276 432 c 0
 264 431 248 425 230 418 c 0
 212 412 192 404 173 398 c 0
 135 387 97 383 81 419 c 0
 68 449 68 497 69 545 c 0
 71 593 76 642 74 677 c 0
 73 692 76 761 76 774 c 0
 76 798 131 800 193 798 c 0
 257 796 335 790 389 792 c 0
 431 794 508 789 544 789 c 0
 561 789 569 782 551 710 c 0
 544 682 533 671 513 668 c 0
EndSplineSet
EndChar

StartChar: six
Encoding: 54 54 22
Width: 612
Flags: MW
HStem: -8 100 287 109
VStem: 38 124
LayerCount: 2
Fore
SplineSet
294 283 m 0
 255 277 201 247 200 206 c 0
 198 126 281 92 326 92 c 0
 382 93 468 150 468 205 c 0
 468 289 377 295 294 283 c 0
57 163 m 0
 20 256 48 396 63 492 c 0
 78 587 154 721 223 768 c 0
 252 787 378 831 390 756 c 0
 395 725 377 710 354 700 c 0
 343 695 331 692 319 687 c 0
 307 683 296 679 287 673 c 0
 214 624 159 434 163 333 c 1
 244 403 371 408 458 384 c 0
 511 370 587 281 574 193 c 0
 536 -70 148 -67 57 163 c 0
EndSplineSet
EndChar

StartChar: seven
Encoding: 55 55 23
Width: 562
Flags: MW
HStem: 668 130 778 20G
VStem: 25 504
LayerCount: 2
Fore
SplineSet
470 582 m 0
 447 532 422 484 416 470 c 0
 405 446 370 370 335 290 c 0
 300 209 265 124 258 82 c 0
 254 59 229 17 221 10 c 0
 212 3 174 -14 160 -13 c 0
 110 -10 125 67 134 109 c 0
 151 188 196 282 244 376 c 0
 292 470 342 564 369 641 c 0
 376 662 367 667 344 668 c 0
 322 668 288 663 254 660 c 0
 235 659 209 656 181 654 c 0
 153 651 123 651 98 653 c 0
 46 658 7 677 34 734 c 0
 38 743 56 757 70 761 c 0
 115 775 175 782 235 786 c 0
 294 790 353 792 396 798 c 0
 471 808 550 790 524 704 c 0
 518 683 494 632 470 582 c 0
EndSplineSet
EndChar

StartChar: eight
Encoding: 56 56 24
Width: 571
Flags: MW
HStem: -15 86 298 173 690 106
VStem: 17 115 24 127 377 105 426 111
LayerCount: 2
Fore
SplineSet
292 298 m 0xea
 214 297 121 172 160 109 c 0
 222 9 491 131 412 245 c 0
 385 284 326 299 292 298 c 0xea
285 691 m 0
 266 690 240 682 224 680 c 0
 120 670 74 471 255 472 c 0
 353 472 375 568 377 592 c 0xec
 382 639 330 693 285 691 c 0
417 453 m 0
 402 438 387 426 375 414 c 0
 363 402 357 393 357 387 c 1
 358 385 361 382 369 379 c 0
 376 376 387 372 399 368 c 0
 424 360 454 348 479 323 c 0
 641 161 430 -13 273 -15 c 0
 109 -18 -4 42 31 195 c 0
 36 216 49 244 62 265 c 0
 68 273 77 282 89 292 c 0
 100 301 113 311 125 321 c 0
 151 341 171 358 171 368 c 0
 171 374 164 380 149 388 c 0
 134 396 115 404 96 415 c 0
 57 437 17 469 17 522 c 0xf2
 17 656 87 790 228 797 c 0
 316 802 416 769 452 709 c 0
 469 680 477 660 481 638 c 0
 482 627 483 615 483 602 c 0
 483 589 482 575 482 557 c 0
 481 518 448 482 417 453 c 0
EndSplineSet
EndChar

StartChar: nine
Encoding: 57 57 25
Width: 520
Flags: MW
HStem: 389 96 689 102
VStem: 25 115 372 117
LayerCount: 2
Fore
SplineSet
261 690 m 0
 195 682 119 604 146 521 c 0
 155 494 207 482 246 486 c 0
 288 490 376 580 372 626 c 0
 369 657 301 695 261 690 c 0
436 477 m 0
 415 441 400 406 386 369 c 0
 371 331 358 293 342 250 c 0
 330 218 318 172 304 129 c 0
 291 86 277 44 258 20 c 0
 230 -17 190 -31 174 24 c 0
 158 76 187 152 204 201 c 0
 212 225 230 258 242 285 c 0
 245 292 255 314 264 337 c 0
 272 360 278 382 274 391 c 0
 272 395 267 396 257 395 c 0
 247 395 234 392 219 390 c 0
 190 386 153 383 121 402 c 0
 47 445 -5 557 44 669 c 0
 72 734 158 783 237 791 c 0
 307 798 390 780 438 732 c 0
 466 705 492 682 489 639 c 0
 487 609 450 500 436 477 c 0
EndSplineSet
EndChar

StartChar: colon
Encoding: 58 58 26
Width: 164
Flags: MW
HStem: 1 121 350 120
VStem: 14 124 18 124
LayerCount: 2
Fore
SplineSet
27 30 m 0
 7 57 8 95 55 116 c 0
 126 147 165 54 118 15 c 1
 85 -11 46 4 27 30 c 0
30 379 m 0
 11 405 12 444 59 465 c 0
 130 496 169 402 122 364 c 0
 89 337 50 352 30 379 c 0
EndSplineSet
EndChar

StartChar: semicolon
Encoding: 59 59 27
Width: 193
Flags: MW
HStem: 346 125
VStem: 25 124 31 145
LayerCount: 2
Fore
SplineSet
76 -176 m 0
 39 -188 31 -167 35 -133 c 0
 36 -123 40 -113 47 -103 c 0
 53 -94 60 -85 67 -76 c 0
 81 -58 91 -40 83 -22 c 0
 78 -10 56 19 44 26 c 0
 24 38 27 77 62 87 c 0
 71 90 92 85 101 81 c 0
 255 19 134 -157 76 -176 c 0
37 376 m 0
 18 403 19 443 66 465 c 0
 137 497 175 400 129 361 c 0
 96 333 56 349 37 376 c 0
EndSplineSet
EndChar

StartChar: less
Encoding: 60 60 28
Width: 437
Flags: MW
HStem: 58 645
VStem: 36 143
LayerCount: 2
Fore
SplineSet
405 585 m 0
 396 578 386 571 376 565 c 0
 366 559 357 553 350 548 c 0
 329 531 307 513 286 494 c 0
 264 475 243 456 225 436 c 0
 222 433 217 429 212 424 c 0
 202 415 180 396 180 381 c 0
 180 360 209 332 244 306 c 0
 261 294 279 282 294 271 c 0
 309 261 322 252 329 246 c 0
 336 240 345 232 356 222 c 0
 388 192 426 149 421 102 c 0
 419 79 393 59 372 59 c 0
 344 59 324 77 306 97 c 0
 297 107 288 118 279 128 c 0
 271 137 262 146 252 153 c 0
 178 202 97 295 46 359 c 0
 23 387 44 414 62 436 c 0
 69 443 75 451 81 458 c 0
 105 487 127 504 150 520 c 0
 162 529 174 537 186 547 c 0
 199 557 212 569 226 584 c 0
 261 622 340 700 396 704 c 0
 419 706 446 680 443 639 c 0
 441 616 424 599 405 585 c 0
EndSplineSet
EndChar

StartChar: equal
Encoding: 61 61 29
Width: 303
Flags: W
LayerCount: 2
Fore
SplineSet
15 382 m 0
 15 389 22 405 43 410 c 0
 49 412 43 410 88 417 c 1
 140 411 157 415 188 415 c 0
 229 415 257 415 273 406 c 1
 303 382 275 353 268 351 c 0
 244 342 261 351 219 346 c 0
 201 344 175 346 153 346 c 0
 129 346 91 344 70 346 c 0
 29 351 15 371 15 382 c 0
250 235 m 1
 20 254 l 1
 23 242 38 238 53 237 c 0
 68 235 85 236 94 234 c 0
 106 232 123 232 139 232 c 0
 155 232 171 232 182 232 c 0
 190 232 202 231 213 231 c 0
 226 231 238 232 250 235 c 1
250 235 m 1
 273 243 280 243 280 280 c 0
 280 289 265 303 252 306 c 0
 239 309 218 308 207 309 c 0
 160 314 131 308 74 311 c 0
 22 314 30 298 22 290 c 0
 14 282 13 281 20 254 c 0
 23 242 38 238 53 237 c 0
 68 235 85 236 94 234 c 0
 106 232 123 232 139 232 c 0
 155 232 171 232 182 232 c 0
 190 232 202 231 213 231 c 0
 226 231 238 232 250 235 c 1
EndSplineSet
EndChar

StartChar: greater
Encoding: 62 62 30
Width: 435
Flags: MW
HStem: 88 594
VStem: 317 122
LayerCount: 2
Fore
SplineSet
415 331 m 0
 409 321 402 313 392 305 c 0
 380 296 366 283 352 270 c 0
 339 257 326 244 315 233 c 0
 286 204 263 181 239 159 c 0
 216 138 192 119 161 105 c 0
 124 88 84 71 84 129 c 0
 84 156 91 172 102 184 c 0
 113 196 127 205 139 215 c 0
 154 229 174 245 193 260 c 0
 213 276 231 291 241 301 c 0
 256 317 316 369 318 387 c 0
 320 414 277 458 263 470 c 0
 243 487 216 509 185 530 c 0
 161 546 134 556 108 569 c 0
 83 581 61 596 53 623 c 0
 42 659 84 677 105 682 c 0
 142 690 190 655 217 634 c 0
 240 615 268 597 295 577 c 0
 322 557 349 536 373 513 c 0
 401 485 459 412 434 366 c 0
 426 352 421 341 415 331 c 0
EndSplineSet
EndChar

StartChar: question
Encoding: 63 63 31
Width: 464
Flags: MW
HStem: -1 114 701 103
VStem: 133 124 154 88 330 122
LayerCount: 2
Fore
SplineSet
145 27 m 0xe8
 126 52 128 89 175 108 c 0
 246 136 284 48 236 12 c 0
 202 -13 163 2 145 27 c 0xe8
249 380 m 0
 244 378 243 346 243 308 c 0
 243 290 243 272 243 258 c 0
 243 243 243 232 242 229 c 0
 228 194 157 184 152 219 c 0
 148 251 136 414 154 458 c 0xd8
 161 475 185 481 210 486 c 0
 222 488 235 491 247 493 c 0
 260 496 270 498 278 502 c 0
 359 540 358 723 197 701 c 0
 164 697 141 680 119 657 c 0
 113 650 107 643 101 637 c 0
 77 611 55 591 15 615 c 0
 6 620 -9 638 -8 658 c 0
 -6 729 122 801 203 804 c 0
 414 811 523 635 403 472 c 0
 373 432 316 404 249 380 c 0
EndSplineSet
EndChar

StartChar: at
Encoding: 64 64 32
Width: 772
Flags: MW
HStem: 9 110 239 104 481 107 686 103
VStem: 32 119 697 94
LayerCount: 2
Fore
SplineSet
353 342 m 1
 377 334 408 361 428 396 c 0
 449 432 455 469 436 478 c 0
 380 506 340 381 353 342 c 1
497 322 m 1
 454 263 366 222 298 256 c 0
 229 291 243 388 267 464 c 0
 286 523 329 570 387 583 c 0
 431 593 468 590 497 574 c 0
 512 566 519 560 524 551 c 0
 527 546 529 541 531 535 c 0
 534 528 537 520 541 509 c 0
 543 506 544 500 546 492 c 0
 547 485 549 475 551 465 c 0
 556 444 562 419 571 397 c 0
 588 353 613 324 655 357 c 0
 770 450 626 645 530 671 c 0
 403 706 291 682 211 582 c 0
 151 508 128 314 179 227 c 0
 213 169 252 141 306 130 c 0
 386 113 422 118 486 137 c 0
 532 151 594 105 558 65 c 0
 464 -37 193 17 117 113 c 0
 102 131 90 146 80 161 c 0
 69 176 60 191 53 207 c 0
 39 240 32 278 32 338 c 0
 32 439 50 524 85 598 c 0
 149 735 318 821 499 780 c 0
 670 742 792 609 792 447 c 2
 792 405 l 1
 778 277 583 152 497 322 c 1
EndSplineSet
EndChar

StartChar: A
Encoding: 65 65 33
Width: 648
Flags: MW
HStem: -2 21G<549.5 582> 290 104 662 136<273 327.5>
VStem: 10 620
LayerCount: 2
Fore
SplineSet
283 662 m 0
 263 662 247 631 234 592 c 0
 221 555 214 513 210 496 c 0
 205 472 193 449 193 423 c 0
 193 406 197 399 202 397 c 0
 205 395 209 394 215 394 c 0
 220 394 226 394 233 394 c 0
 260 394 425 401 437 411 c 1
 446 420 449 432 449 446 c 0
 449 524 372 662 283 662 c 0
568 -2 m 0
 531 -2 515 29 508 63 c 0
 504 81 503 100 501 117 c 0
 499 134 497 150 494 162 c 0
 488 182 485 200 481 216 c 0
 478 232 473 245 467 256 c 0
 455 278 433 291 386 291 c 0
 351 291 195 292 173 279 c 0
 159 271 151 252 147 226 c 0
 142 199 141 168 138 138 c 0
 133 78 124 18 77 18 c 0
 30 18 10 31 10 70 c 0
 10 74 11 127 14 139 c 0
 17 151 21 164 22 170 c 0
 33 228 39 288 54 346 c 0
 71 413 93 478 113 544 c 0
 125 582 135 645 155 699 c 0
 175 753 206 798 261 798 c 0
 476 798 530 569 556 402 c 0
 562 360 581 286 598 215 c 0
 615 144 631 75 631 44 c 0
 631 7 596 -2 568 -2 c 0
EndSplineSet
EndChar

StartChar: B
Encoding: 66 66 34
Width: 623
Flags: MW
HStem: -4 99 683 116
VStem: 39 108<311.5 448.5> 388 120 462 137<207.5 261.5 176 283.5>
LayerCount: 2
Fore
SplineSet
355 379 m 0xe8
 325 388 288 379 257 379 c 0
 224 379 184 398 184 438 c 0
 184 476 224 494 256 496 c 0
 315 499 389 560 389 623 c 0
 389 672 335 683 294 683 c 0
 179 683 136 629 136 519 c 0
 136 455 147 392 147 329 c 0
 147 294 140 261 140 226 c 0
 140 128 168 121 258 100 c 0
 272 97 287 95 301 95 c 0
 387 95 462 164 462 251 c 0
 462 316 416 362 355 379 c 0xe8
304 -3 m 0
 232 -3 150 1 79 20 c 0
 54 26 43 71 38 116 c 0
 32 161 33 210 33 228 c 0
 33 294 39 359 39 424 c 0
 39 473 36 521 36 569 c 0
 36 604 35 707 68 726 c 0
 122 758 200 800 264 800 c 0
 364 800 508 697 508 588 c 0xf0
 508 543 483 519 457 501 c 0
 445 493 432 486 423 479 c 0
 414 472 409 466 409 459 c 0
 409 452 415 446 427 440 c 1
 438 433 454 427 471 420 c 0
 504 407 542 390 556 361 c 0
 575 322 599 284 599 239 c 0
 599 113 418 -3 304 -3 c 0
EndSplineSet
EndChar

StartChar: C
Encoding: 67 67 35
Width: 589
Flags: MW
HStem: -8 114<339.5 388 290.5 393> 669 135
VStem: 16 104<315 428 315 490.5>
LayerCount: 2
Fore
SplineSet
349 -8 m 0
 330 -8 311 -8 293 -6 c 0
 108 11 16 226 16 389 c 0
 16 592 151 804 373 804 c 0
 430 804 539 768 539 695 c 0
 539 676 530 631 503 631 c 0
 496 631 487 633 477 637 c 0
 467 641 456 645 444 650 c 0
 419 660 390 670 358 670 c 0
 336 670 314 666 293 660 c 0
 202 634 120 473 120 383 c 0
 120 247 218 106 363 106 c 0
 413 106 436 126 456 145 c 0
 466 155 475 165 486 172 c 0
 498 180 511 185 529 185 c 0
 565 185 566 156 566 130 c 0
 566 14 437 -8 349 -8 c 0
EndSplineSet
EndChar

StartChar: D
Encoding: 68 68 36
Width: 629
Flags: MW
HStem: 1 109<165 258 165 282> 688 109<234.5 262.5>
VStem: 14 123 33 128 490 126
LayerCount: 2
Fore
SplineSet
399 647 m 0xe8
 355 667 286 688 239 688 c 0
 230 688 222 688 214 686 c 0
 185 679 173 676 167 668 c 0
 164 665 163 660 162 653 c 0
 161 645 161 636 161 624 c 0xd8
 161 494 161 358 145 230 c 0
 142 205 137 181 137 156 c 0
 137 125 149 110 181 110 c 0
 335 110 491 362 491 502 c 0
 491 570 461 618 399 647 c 0xe8
584 350 m 0
 495 169 396 1 168 1 c 0
 90 1 15 3 15 103 c 0
 15 145 26 185 29 226 c 0
 39 343 34 463 34 581 c 0
 34 602 32 650 36 695 c 0
 40 739 50 782 76 788 c 0
 108 796 146 797 178 797 c 0
 359 797 616 693 616 477 c 0
 616 432 603 389 584 350 c 0
EndSplineSet
EndChar

StartChar: E
Encoding: 69 69 37
Width: 599
Flags: MW
HStem: -2 21G 12 130 374 104 661 137 674 124<67.5 242.5>
VStem: 24 99 39 95
LayerCount: 2
Fore
SplineSet
449 17 m 0xb4
 382 11 308 12 284 12 c 0x74
 223 12 163 -3 102 -3 c 0
 91 -3 81 -3 70 -1 c 0
 44 3 33 51 28 99 c 0
 23 148 25 201 25 222 c 0
 25 327 40 433 40 539 c 0
 40 599 38 662 28 722 c 0
 27 731 25 740 25 748 c 0
 25 788 50 798 85 798 c 0
 217 798 351 796 484 796 c 0
 504 796 541 763 541 742 c 0
 541 675 446 662 401 662 c 0
 337 662 274 674 211 674 c 0
 195 674 176 674 161 669 c 0
 139 661 134 555 134 534 c 0xaa
 134 492 136 478 183 478 c 0
 218 478 253 486 289 486 c 0
 328 486 354 478 354 433 c 0
 354 393 326 378 293 374 c 0
 276 372 258 372 241 373 c 0
 225 373 209 375 197 375 c 0
 155 375 137 363 129 345 c 0
 125 335 124 323 123 309 c 0
 123 295 123 279 123 261 c 0
 123 244 125 147 137 137 c 0
 148 128 165 128 180 128 c 0
 253 128 326 143 400 143 c 0
 440 143 581 140 581 73 c 0
 581 38 516 23 449 17 c 0xb4
EndSplineSet
EndChar

StartChar: F
Encoding: 70 70 38
Width: 541
Flags: MW
HStem: -6 21G 363 116 369 95 683 118 688 113<171 280.5>
VStem: 38 115 51 122
LayerCount: 2
Fore
SplineSet
474 676 m 0xca
 425 676 426 684 377 684 c 0
 338 684 300 688 261 688 c 0
 233 688 177 685 160 661 c 0
 157 657 157 631 157 625 c 0
 157 605 161 489 168 479 c 0
 177 467 192 465 208 465 c 0
 249 465 290 480 331 480 c 0
 364 480 387 467 387 430 c 0
 387 381 361 363 315 363 c 0xcc
 284 363 253 369 222 369 c 0
 172 369 153 359 153 308 c 0xb4
 153 251 173 196 173 140 c 0
 173 128 174 113 173 98 c 0
 172 57 164 -5 109 -5 c 0
 98 -5 87 -3 76 0 c 0
 58 6 53 38 51 70 c 0
 49 102 52 136 52 151 c 0
 52 258 39 365 39 473 c 0
 39 534 30 595 30 657 c 0
 30 731 37 768 62 785 c 0
 74 794 90 798 110 800 c 0
 130 802 155 801 187 801 c 2
 456 799 l 2
 495 799 556 794 556 742 c 0
 556 697 520 676 474 676 c 0xca
EndSplineSet
EndChar

StartChar: G
Encoding: 71 71 39
Width: 695
Flags: MW
HStem: 2 116 331 119 668 131
VStem: 6 112<375.5 436 317 503> 553 111
LayerCount: 2
Fore
SplineSet
383 3 m 0
 357 3 331 5 305 10 c 0
 184 33 49 160 20 280 c 0
 11 318 6 356 6 395 c 0
 6 611 169 800 392 800 c 0
 448 800 571 767 571 693 c 0
 571 673 561 630 533 630 c 0
 523 630 512 633 501 636 c 0
 489 640 477 645 464 649 c 0
 437 659 408 668 376 668 c 0
 352 668 328 665 305 659 c 0
 212 635 118 483 118 389 c 0
 118 245 235 119 381 119 c 0
 426 119 465 133 494 168 c 0
 517 196 553 272 553 307 c 0
 553 334 525 338 501 338 c 0
 471 338 441 332 411 332 c 0
 357 332 338 356 338 409 c 0
 338 443 501 450 524 450 c 0
 545 450 595 451 615 440 c 0
 625 435 655 412 659 400 c 1
 662 387 664 371 665 354 c 0
 665 338 665 322 665 308 c 0
 665 121 574 3 383 3 c 0
EndSplineSet
EndChar

StartChar: H
Encoding: 72 72 40
Width: 618
Flags: MW
HStem: 0 21G 399 85 782 20G
VStem: 33 122 440 134<140 161.5 121 180.5> 449 136 461 105
LayerCount: 2
Fore
SplineSet
572 539 m 0xf4
 568 509 567 454 567 398 c 0
 567 341 568 284 568 249 c 0
 568 214 574 179 574 144 c 0
 574 98 569 -1 501 -1 c 0
 442 -1 440 121 440 159 c 0xf8
 440 202 443 246 446 289 c 0
 447 314 461 338 461 364 c 0xf2
 461 390 446 399 420 399 c 0
 375 399 174 380 159 348 c 0
 150 330 149 306 149 285 c 0
 149 226 161 168 161 109 c 0
 161 61 151 1 88 1 c 0
 23 1 22 108 22 150 c 0
 22 194 27 237 30 281 c 0
 38 384 30 492 30 596 c 0
 30 611 30 657 35 700 c 0
 40 742 51 784 77 784 c 0
 99 784 165 773 165 741 c 0
 165 685 156 628 156 571 c 0
 156 553 156 539 157 527 c 0
 157 516 159 507 163 501 c 0
 171 489 187 485 224 485 c 0
 290 485 374 490 438 507 c 0
 458 513 459 538 459 557 c 0
 459 604 449 651 449 698 c 0
 449 745 458 803 520 803 c 0
 581 803 586 719 586 677 c 0
 586 630 578 585 572 539 c 0xf4
EndSplineSet
EndChar

StartChar: I
Encoding: 73 73 41
Width: 202
Flags: MW
HStem: -1 21G<57.5 113.5> 784 20G
VStem: 27 121<93.5 178.5> 50 122<568.5 749>
LayerCount: 2
Fore
SplineSet
164 629 m 0xd0
 153 492 158 354 150 218 c 0
 148 184 148 151 148 117 c 0
 148 70 141 -1 86 -1 c 0
 29 -1 27 125 27 167 c 0xe0
 27 190 28 212 30 235 c 0
 40 366 50 503 50 634 c 0
 50 664 48 695 48 726 c 0
 48 778 61 805 109 805 c 0
 155 805 172 774 172 724 c 0
 172 692 166 660 164 629 c 0xd0
EndSplineSet
EndChar

StartChar: J
Encoding: 74 74 42
Width: 600
Flags: MW
HStem: 3 102 679 112 696 104<474 491>
VStem: 354 114<505 527 477 543.5>
LayerCount: 2
Fore
SplineSet
561 692 m 0xd0
 532 692 505 696 477 696 c 0
 471 696 466 696 461 695 c 0
 456 694 453 692 453 687 c 0
 453 662 463 637 465 612 c 0
 468 578 468 544 468 510 c 0
 468 444 466 378 464 312 c 0
 458 158 432 4 240 4 c 0
 175 4 38 34 38 123 c 0
 38 145 62 168 84 168 c 0
 92 168 102 164 112 158 c 0
 123 152 134 144 146 136 c 0
 171 120 198 105 228 105 c 0
 290 105 320 140 336 187 c 0
 344 211 347 237 349 264 c 0
 351 290 351 316 351 338 c 0
 351 404 354 472 354 538 c 0
 354 549 355 586 352 620 c 0
 349 655 334 680 322 681 c 0
 307 683 291 683 275 682 c 0
 258 681 242 680 226 680 c 0
 195 680 108 679 108 724 c 0
 108 775 133 786 183 786 c 0
 211 786 238 792 266 792 c 0
 333 792 400 800 467 800 c 0xb0
 515 800 633 802 633 732 c 0
 633 695 584 692 561 692 c 0xd0
EndSplineSet
EndChar

StartChar: K
Encoding: 75 75 43
Width: 573
Flags: MW
HStem: -1 21G<88.5 122 518 541.5> 771 20G 773 20G
VStem: 26 110
LayerCount: 2
Fore
SplineSet
529 -1 m 0
 507 -1 486 20 469 43 c 0
 460 55 451 68 443 79 c 0
 435 91 428 101 422 107 c 0
 404 126 350 188 295 246 c 0
 239 305 185 356 166 356 c 0
 157 356 153 343 151 328 c 0
 149 312 149 294 149 288 c 0
 149 210 165 133 165 56 c 0
 165 23 138 -1 106 -1 c 0
 71 -1 56 25 53 55 c 0
 29 272 34 506 26 722 c 0
 25 753 44 794 81 794 c 0
 129 794 135 723 136 656 c 0
 137 622 136 587 137 560 c 0
 138 531 142 514 150 510 c 1
 152 510 l 2
 156 510 177 526 199 546 c 0
 221 565 243 585 250 591 c 0
 318 647 377 721 431 792 c 1
 456 792 492 787 492 754 c 0
 492 702 427 631 364 569 c 0
 332 538 300 509 276 486 c 0
 251 462 237 446 237 440 c 0
 237 417 317 366 336 350 c 0
 396 299 574 123 574 45 c 0
 574 21 554 -1 529 -1 c 0
EndSplineSet
EndChar

StartChar: L
Encoding: 76 76 44
Width: 526
Flags: MW
HStem: -4 114<353.5 363> 780 20G<113.5 143>
VStem: 29 124 56 109
LayerCount: 2
Fore
SplineSet
431 2 m 0xd0
 406 -5 376 -4 350 -4 c 0
 319 -4 289 -1 258 0 c 0
 226 1 194 -3 163 -3 c 0
 105 -3 29 5 29 82 c 0xe0
 29 233 34 384 41 535 c 0
 45 607 47 682 57 754 c 0
 63 798 96 800 131 800 c 0
 155 800 164 793 167 779 c 0
 168 773 168 765 167 756 c 0
 166 748 165 738 165 727 c 0
 165 684 154 528 154 485 c 0
 154 366 149 361 140 242 c 0
 138 212 131 167 131 137 c 0
 131 119 139 113 150 112 c 0
 157 111 164 112 172 112 c 0
 180 112 189 113 197 113 c 0
 263 113 321 110 386 110 c 0
 423 110 475 114 475 61 c 0
 475 25 456 9 431 2 c 0xd0
EndSplineSet
EndChar

StartChar: M
Encoding: 77 77 45
Width: 654
Flags: MW
HStem: 3 21G 488 124 768 20G
VStem: 19 114<504 539.5 539.5 552 487 573> 31 116 486 119 506 98
LayerCount: 2
Fore
SplineSet
604 413 m 0xea
 604 388 606 364 606 340 c 0
 606 260 602 180 602 101 c 0
 602 77 598 5 566 5 c 0
 492 5 487 71 487 126 c 0
 487 244 507 361 507 480 c 0
 507 513 514 547 514 581 c 0
 514 584 514 591 513 598 c 0
 512 603 511 608 507 608 c 0
 499 608 488 601 473 590 c 0
 458 579 441 564 422 549 c 0
 385 519 341 489 300 489 c 0
 268 489 239 514 214 538 c 0
 201 550 189 563 178 572 c 0
 167 581 157 586 148 586 c 0
 140 586 136 579 134 568 c 0
 133 563 133 557 133 552 c 0
 133 546 133 541 133 538 c 0
 133 436 148 336 148 234 c 0
 148 217 148 160 142 108 c 0
 137 56 125 4 97 4 c 0
 29 4 24 83 24 132 c 0
 24 178 32 224 32 271 c 0
 32 364 19 457 19 551 c 0xf4
 19 595 25 780 99 780 c 0
 130 780 168 737 204 696 c 0
 222 675 239 654 255 638 c 0
 271 622 285 612 295 612 c 0
 309 612 327 623 349 640 c 0
 371 656 395 678 419 700 c 0
 467 744 518 789 553 789 c 0
 619 789 627 724 627 674 c 0
 627 587 604 500 604 413 c 0xea
EndSplineSet
EndChar

StartChar: N
Encoding: 78 78 46
Width: 576
Flags: MW
HStem: -4 21G<78 122.5> 551 189 781 20G
VStem: 25 109 34 126 449 108 467 102
LayerCount: 2
Fore
SplineSet
476 -3 m 0xe0
 404 -3 335 152 312 207 c 0
 292 253 152 552 126 552 c 0
 122 552 124 533 124 532 c 0
 124 463 139 396 139 328 c 0
 139 256 150 185 150 113 c 0
 150 80 146 -4 99 -4 c 0
 57 -4 24 55 24 91 c 0
 24 247 16 403 16 559 c 0
 16 598 16 740 82 740 c 0
 187 740 372 381 405 289 c 0
 407 283 416 256 426 230 c 0
 436 205 446 180 453 180 c 0
 456 180 456 187 456 194 c 0
 457 201 457 209 457 210 c 0
 457 280 441 351 440 420 c 2
 439 557 l 2
 439 618 437 685 445 746 c 0
 451 789 489 802 525 802 c 0
 543 802 550 767 553 736 c 0
 556 703 556 668 556 659 c 0
 556 576 547 494 547 412 c 0
 547 340 559 270 559 199 c 0
 559 148 559 -3 476 -3 c 0xe0
EndSplineSet
EndChar

StartChar: O
Encoding: 79 79 47
Width: 602
Flags: MW
HStem: -8 116 681 120 781 20G
VStem: 3 109 493 97
LayerCount: 2
Fore
SplineSet
379 659 m 0x98
 365 671 328 682 310 682 c 0
 299 682 272 669 262 663 c 0
 162 603 122 429 114 319 c 2
 113 305 l 2
 107 214 196 108 291 108 c 0
 402 108 493 272 493 373 c 0
 493 436 427 621 379 659 c 0x98
487 96 m 0
 445 35 390 -7 313 -7 c 0
 144 -7 3 179 3 338 c 0
 3 516 113 763 306 800 c 0
 313 801 319 802 325 802 c 0
 486 802 591 495 591 366 c 0
 591 274 538 171 487 96 c 0
EndSplineSet
EndChar

StartChar: P
Encoding: 80 80 48
Width: 517
Flags: MW
HStem: 0 21G<52 97> 293 99 691 106
VStem: 33 97 414 111
LayerCount: 2
Fore
SplineSet
310 690 m 0
 288 691 265 692 243 692 c 0
 223 692 205 692 191 691 c 0
 176 690 165 687 156 683 c 0
 139 674 130 655 130 614 c 0
 130 581 136 429 155 409 c 0
 169 395 192 393 212 393 c 0
 309 393 415 423 415 537 c 0
 415 597 377 687 310 690 c 0
436 350 m 0
 363 285 260 294 171 294 c 0
 142 294 140 279 140 256 c 0
 140 249 140 240 140 232 c 0
 140 208 143 151 137 99 c 0
 132 48 116 0 78 0 c 0
 26 0 24 84 24 116 c 0
 24 214 34 313 34 413 c 0
 34 523 30 634 30 745 c 0
 30 793 235 797 271 797 c 0
 416 797 526 704 526 555 c 0
 526 478 493 401 436 350 c 0
EndSplineSet
EndChar

StartChar: Q
Encoding: 81 81 49
Width: 667
Flags: MW
HStem: -13 100 687 112
VStem: 24 101 536 96
LayerCount: 2
Fore
SplineSet
536 415 m 0
 532 440 528 464 524 486 c 0
 520 509 515 530 507 549 c 0
 492 588 467 622 420 649 c 0
 389 667 358 688 321 688 c 0
 225 688 144 560 131 472 c 0
 127 448 125 424 125 399 c 0
 125 268 179 88 335 88 c 0
 377 88 416 103 444 134 c 1
 412 161 341 224 341 272 c 0
 341 290 359 311 378 311 c 0
 402 311 428 286 450 262 c 0
 461 250 471 238 480 229 c 0
 490 220 497 214 502 214 c 0
 527 214 537 376 537 403 c 0
 537 406 537 411 536 415 c 0
618 -12 m 0
 599 -12 578 10 561 31 c 0
 552 41 544 52 537 59 c 0
 531 66 527 72 525 72 c 2
 522 72 l 1
 509 62 497 51 486 40 c 0
 474 29 461 19 445 12 c 0
 408 -4 363 -12 323 -12 c 0
 109 -12 25 227 25 405 c 0
 25 581 106 800 316 800 c 0
 323 800 330 800 337 799 c 0
 378 794 495 737 522 705 c 0
 604 609 632 506 632 380 c 0
 632 319 620 260 597 204 c 0
 592 191 586 178 579 165 c 0
 579 164 578 163 577 162 c 2
 575 159 l 2
 574 157 574 156 574 154 c 0
 574 150 579 142 589 132 c 0
 599 122 612 110 625 97 c 0
 651 72 679 41 679 14 c 0
 679 -8 631 -12 618 -12 c 0
EndSplineSet
EndChar

StartChar: R
Encoding: 82 82 50
Width: 591
Flags: MW
HStem: -1 21G 337 93 700 95 772 20G
VStem: 32 95 431 102
LayerCount: 2
Fore
SplineSet
307 681 m 0xdc
 267 691 226 701 185 701 c 0
 155 701 141 695 135 683 c 0
 131 677 130 670 129 660 c 0
 128 651 128 640 128 627 c 0
 128 565 135 503 143 442 c 1
 155 431 189 431 206 431 c 0
 282 431 432 467 432 559 c 0
 432 636 373 665 307 681 c 0xdc
556 -17 m 0
 533 -17 503 6 471 39 c 0
 439 73 403 117 367 161 c 0
 294 251 221 338 173 338 c 0
 144 338 130 319 130 291 c 0
 130 232 147 174 147 114 c 0
 147 72 141 0 81 0 c 0
 51 0 36 38 35 62 c 0
 27 236 32 410 32 584 c 0
 32 632 22 679 22 727 c 0
 22 795 144 795 191 795 c 0xec
 228 795 265 793 301 793 c 0
 420 793 533 673 533 556 c 0
 533 496 502 440 457 403 c 0
 449 397 436 392 422 388 c 0
 409 384 394 381 379 377 c 0
 352 371 329 367 329 356 c 0
 329 337 396 265 465 192 c 0
 499 155 533 119 558 90 c 0
 584 61 602 38 602 28 c 0
 602 8 576 -17 556 -17 c 0
EndSplineSet
EndChar

StartChar: S
Encoding: 83 83 51
Width: 510
Flags: MW
HStem: -6 106 687 106
VStem: 42 110 413 102
LayerCount: 2
Fore
SplineSet
215 -4 m 0
 140 -4 -13 102 -13 185 c 0
 -13 215 23 222 45 222 c 0
 72 222 93 203 109 183 c 0
 115 176 121 169 127 161 c 0
 151 131 175 102 212 102 c 0
 306 102 393 173 393 272 c 0
 393 315 354 337 305 348 c 0
 256 360 200 361 167 365 c 0
 82 375 22 460 22 542 c 0
 22 654 91 796 218 796 c 0
 297 796 471 747 471 644 c 0
 471 624 437 591 417 591 c 0
 404 591 391 598 378 607 c 0
 365 616 351 629 337 641 c 0
 308 666 277 689 242 689 c 0
 178 689 133 597 133 540 c 0
 133 518 139 495 155 480 c 0
 164 472 186 466 218 460 c 0
 249 455 287 449 325 441 c 0
 400 425 476 397 488 333 c 0
 493 309 495 284 495 260 c 0
 495 93 375 -4 215 -4 c 0
EndSplineSet
EndChar

StartChar: T
Encoding: 84 84 52
Width: 641
Flags: MW
HStem: -7 21G 684 118 684 125
VStem: 268 100
LayerCount: 2
Fore
SplineSet
555 690 m 0xd0
 533 686 510 684 489 684 c 0
 467 683 448 684 433 684 c 0
 428 684 415 685 403 684 c 0xb0
 390 682 380 680 378 675 c 0
 372 664 370 623 369 580 c 0
 368 538 368 494 368 477 c 0
 368 449 364 422 364 394 c 2
 364 380 l 2
 364 290 378 201 378 112 c 0
 378 104 378 92 378 80 c 0
 377 51 373 -6 332 -6 c 0
 293 -6 276 30 269 71 c 0
 265 91 263 113 262 133 c 0
 262 152 262 170 262 182 c 0
 262 281 269 379 269 477 c 0
 269 502 266 673 258 680 c 0
 257 681 252 681 250 681 c 0
 202 681 154 672 105 672 c 0
 82 672 12 673 12 709 c 0
 12 729 31 750 43 762 c 0
 65 785 166 793 271 797 c 0
 323 799 377 800 424 802 c 0
 470 804 509 806 531 810 c 0
 537 811 543 812 550 812 c 0
 575 812 634 799 634 763 c 0
 634 717 597 699 555 690 c 0xd0
EndSplineSet
EndChar

StartChar: U
Encoding: 85 85 53
Width: 620
Flags: MW
HStem: -14 126 778 20G<459.5 535>
VStem: 10 107 476 122
LayerCount: 2
Fore
SplineSet
454 22 m 0
 406 0 351 -14 297 -14 c 0
 111 -14 21 154 21 321 c 0
 21 346 23 370 26 395 c 0
 31 430 36 525 51 611 c 0
 66 696 91 777 140 777 c 0
 178 777 185 730 185 703 c 0
 185 663 176 625 166 588 c 0
 155 551 144 514 139 476 c 0
 132 429 128 381 128 333 c 0
 128 208 165 113 306 113 c 0
 388 113 430 168 453 240 c 0
 464 276 471 316 476 354 c 0
 480 392 483 429 485 459 c 0
 486 467 487 475 487 484 c 0
 487 572 437 651 437 740 c 0
 437 773 439 798 480 798 c 0
 590 798 609 535 609 458 c 0
 609 354 561 72 454 22 c 0
EndSplineSet
EndChar

StartChar: V
Encoding: 86 86 54
Width: 635
Flags: MW
HStem: 773 20G 777 20G<74 100.5>
VStem: 34 567
LayerCount: 2
Fore
SplineSet
536 481 m 0xa0
 502 368 463 249 451 199 c 0
 448 184 444 163 437 140 c 0
 431 118 422 93 412 70 c 0
 392 25 364 -15 322 -15 c 0
 280 -15 248 33 237 68 c 0
 216 134 34 711 34 725 c 0
 34 760 54 797 94 797 c 0x60
 107 797 122 794 134 787 c 0
 154 777 176 710 194 641 c 0
 212 572 228 499 234 475 c 0
 254 391 302 316 321 232 c 0
 322 230 323 224 325 218 c 0
 326 214 328 210 331 210 c 0
 348 210 368 298 371 312 c 0
 391 400 419 485 441 572 c 0
 448 601 455 656 470 704 c 0
 485 751 509 794 551 794 c 0
 580 794 602 762 602 736 c 0
 602 704 571 595 536 481 c 0xa0
EndSplineSet
EndChar

StartChar: W
Encoding: 87 87 55
Width: 777
Flags: MW
HStem: -10 21G<226 260> -5 21G<508.5 539.5> 778 20G<654 712.5>
VStem: 33 729
LayerCount: 2
Fore
SplineSet
747 687 m 0xb0
 744 672 740 657 736 643 c 0
 693 492 645 343 611 190 c 0
 606 165 602 136 595 107 c 0
 589 79 580 50 568 27 c 0
 561 12 550 -5 529 -5 c 0x70
 488 -5 460 43 437 89 c 0
 425 112 415 135 405 152 c 0
 395 170 385 180 377 180 c 0
 371 180 365 168 357 151 c 0
 349 134 339 110 327 86 c 0
 305 40 277 -10 243 -10 c 0
 209 -10 189 41 180 69 c 0
 177 80 174 90 172 97 c 0
 136 216 23 608 23 719 c 0
 23 746 26 797 67 797 c 0
 80 797 93 792 105 786 c 0
 135 771 165 644 191 512 c 0
 217 379 236 237 251 193 c 2
 252 190 l 2
 253 188 254 184 257 184 c 0
 261 184 267 192 277 208 c 0
 286 223 296 243 307 263 c 0
 329 301 355 343 380 343 c 0
 401 343 427 306 449 271 c 0
 461 253 472 235 481 222 c 0
 491 208 498 201 501 201 c 0
 502 201 503 202 504 204 c 0
 506 208 l 2
 515 226 518 249 522 272 c 0
 525 294 527 317 531 338 c 0
 542 406 618 798 690 798 c 0
 735 798 752 773 752 732 c 0
 752 717 750 702 747 687 c 0xb0
EndSplineSet
EndChar

StartChar: X
Encoding: 88 88 56
Width: 689
Flags: MW
HStem: -14 21G 4 21G<558 592> 778 20G
VStem: 36 629 261 175
LayerCount: 2
Fore
SplineSet
550 560 m 0xb0
 521 528 493 497 472 471 c 0
 450 444 437 423 437 409 c 0
 437 365 485 291 536 222 c 0
 561 187 587 155 606 127 c 0
 624 99 637 76 637 63 c 0
 637 39 604 4 580 4 c 0x70
 536 4 491 80 452 153 c 0
 432 190 413 227 396 255 c 0
 378 283 364 300 354 300 c 0
 339 300 322 282 302 252 c 0
 283 223 262 184 239 145 c 0
 193 67 138 -13 73 -13 c 0
 49 -13 37 7 37 28 c 0
 37 83 94 159 149 229 c 0
 177 264 206 298 227 328 c 0
 248 358 261 382 261 398 c 0xa8
 261 450 209 517 157 577 c 0
 130 608 104 636 84 660 c 0
 65 684 51 705 51 719 c 0
 51 750 79 769 108 769 c 0
 155 769 283 607 300 564 c 0
 309 543 322 509 348 509 c 0
 368 509 389 526 410 553 c 0
 421 567 431 583 442 599 c 0
 453 616 464 635 475 653 c 0
 519 724 566 799 620 799 c 0
 646 799 666 788 666 760 c 0
 666 697 607 625 550 560 c 0xb0
EndSplineSet
EndChar

StartChar: Y
Encoding: 89 89 57
Width: 620
Flags: MW
HStem: -11 21G<290 316.5> 777 20G<66.5 98 531 563.5>
VStem: 245 98
LayerCount: 2
Fore
SplineSet
542 637 m 0
 510 589 475 541 460 516 c 0
 453 505 427 470 404 437 c 0
 380 402 358 370 357 362 c 0
 346 299 343 231 343 167 c 0
 343 122 351 76 351 31 c 0
 351 3 329 -11 304 -11 c 0
 276 -11 245 6 245 38 c 2
 246 344 l 2
 246 368 233 398 212 433 c 0
 192 468 164 507 137 546 c 0
 83 624 27 704 27 762 c 0
 27 786 58 797 75 797 c 0
 121 797 170 711 212 629 c 0
 233 587 253 545 270 514 c 0
 287 482 300 463 308 463 c 0
 315 463 330 482 349 514 c 0
 367 545 390 587 413 629 c 0
 459 711 511 797 551 797 c 0
 576 797 601 784 601 755 c 0
 601 732 573 684 542 637 c 0
EndSplineSet
EndChar

StartChar: Z
Encoding: 90 90 58
Width: 538
Flags: MW
HStem: -8 132 5 119<304.5 412.5> 689 109<286.5 357>
VStem: 16 133<38.5 139.5> 16 492 357 151
LayerCount: 2
Fore
SplineSet
328 429 m 0x68
 283 363 239 298 205 244 c 0
 171 190 149 149 149 130 c 0xb4
 149 115 178 116 188 116 c 0
 235 116 281 124 328 124 c 0
 364 124 495 125 495 68 c 0
 495 28 475 12 448 7 c 0
 435 4 420 5 405 5 c 0
 390 6 375 7 362 7 c 0
 289 7 216 -7 143 -7 c 0
 89 -7 16 3 16 74 c 0
 16 141 76 224 111 278 c 0
 171 368 214 468 277 556 c 0
 291 576 358 661 358 679 c 0
 358 688 320 689 314 689 c 0
 259 689 206 668 152 658 c 0
 134 654 116 652 98 652 c 0
 66 652 41 691 41 720 c 0
 41 761 104 780 170 789 c 0
 237 798 311 798 337 798 c 0
 377 798 508 806 508 741 c 0
 508 694 417 560 328 429 c 0x68
EndSplineSet
EndChar

StartChar: bracketleft
Encoding: 91 91 59
Width: 255
Flags: MW
HStem: -26 102 720 103
VStem: 30 95
LayerCount: 2
Fore
SplineSet
220 719 m 0
 209 719 197 719 183 720 c 0
 170 720 157 719 144 714 c 0
 122 704 117 648 118 583 c 0
 119 520 125 452 125 423 c 0
 123 334 121 264 116 192 c 0
 115 168 118 84 130 76 c 0
 141 69 160 71 181 74 c 0
 191 75 201 77 210 76 c 0
 219 76 227 75 233 71 c 0
 255 55 275 16 252 -12 c 0
 242 -23 217 -25 191 -25 c 0
 165 -25 137 -23 119 -23 c 0
 55 -23 33 20 27 74 c 0
 24 101 26 131 27 160 c 0
 29 190 31 218 31 243 c 0
 31 388 33 498 36 616 c 0
 37 651 33 699 37 739 c 0
 41 779 53 813 88 818 c 0
 148 826 260 835 260 775 c 0
 260 730 244 720 220 719 c 0
EndSplineSet
EndChar

StartChar: backslash
Encoding: 92 92 60
Width: 413
Flags: MW
HStem: -10 21G
VStem: 39 380
LayerCount: 2
Fore
SplineSet
355 -3 m 0
 333 10 307 62 299 87 c 0
 243 269 176 434 99 603 c 0
 90 623 73 653 60 685 c 0
 46 717 36 751 39 778 c 0
 42 805 53 817 88 814 c 1
 120 791 143 749 163 703 c 0
 183 656 198 605 215 562 c 0
 262 441 321 308 371 182 c 0
 379 162 391 136 401 111 c 0
 411 86 419 63 419 49 c 0
 419 -15 378 -16 355 -3 c 0
EndSplineSet
EndChar

StartChar: bracketright
Encoding: 93 93 61
Width: 285
Flags: MW
HStem: -20 98
VStem: 171 91
LayerCount: 2
Fore
SplineSet
263 227 m 0
 264 187 269 130 264 81 c 0
 260 32 245 -10 203 -19 c 0
 192 -21 182 -22 171 -21 c 0
 160 -20 148 -19 133 -20 c 0
 122 -20 108 -21 92 -22 c 0
 76 -23 60 -23 45 -21 c 0
 15 -16 -7 0 7 43 c 0
 13 63 48 74 64 79 c 0
 69 80 77 79 85 79 c 0
 94 78 104 77 114 77 c 0
 135 75 154 76 161 83 c 0
 170 92 172 127 173 166 c 0
 173 204 171 243 171 256 c 0
 173 309 175 363 170 451 c 0
 169 478 170 510 171 537 c 0
 171 559 176 601 177 639 c 0
 179 678 177 712 170 719 c 0
 158 731 140 732 118 732 c 0
 96 731 73 728 51 734 c 0
 19 742 5 765 30 797 c 0
 53 826 114 823 148 823 c 0
 226 823 258 807 268 760 c 0
 273 737 274 707 272 668 c 0
 271 630 267 583 266 526 c 0
 265 437 262 316 263 227 c 0
EndSplineSet
EndChar

StartChar: asciicircum
Encoding: 94 94 62
Width: 430
Flags: MW
HStem: 771 20G
VStem: 38 395
LayerCount: 2
Fore
SplineSet
387 501 m 0
 363 506 342 539 329 558 c 0
 321 569 311 580 301 590 c 0
 292 600 283 609 276 617 c 0
 273 620 268 627 263 636 c 0
 258 645 252 655 246 665 c 0
 235 683 225 701 220 699 c 0
 210 695 186 660 179 650 c 0
 168 634 154 614 141 591 c 0
 131 572 125 552 117 532 c 0
 109 513 99 497 82 490 c 0
 60 481 43 494 39 512 c 0
 34 540 60 595 74 616 c 0
 98 651 124 695 150 733 c 0
 166 756 203 806 232 787 c 0
 250 775 273 741 283 726 c 0
 294 708 308 688 321 672 c 0
 338 651 361 635 382 618 c 0
 402 601 421 584 430 560 c 0
 442 530 424 494 387 501 c 0
EndSplineSet
EndChar

StartChar: underscore
Encoding: 95 95 63
Width: 382
Flags: MW
HStem: -68 68
VStem: -37 446
LayerCount: 2
Fore
SplineSet
361 -67 m 0
 326 -72 278 -69 250 -69 c 0
 210 -68 139 -71 98 -67 c 0
 81 -66 52 -66 26 -64 c 0
 1 -62 -25 -58 -30 -46 c 0
 -42 -20 -37 -9 -23 -5 c 0
 -17 -4 -9 -4 -1 -4 c 0
 7 -4 14 -5 21 -4 c 0
 107 4 203 5 285 0 c 0
 303 -1 329 -2 352 -5 c 0
 374 -8 395 -12 401 -20 c 0
 424 -50 395 -63 361 -67 c 0
EndSplineSet
EndChar

StartChar: a
Encoding: 97 97 64
Width: 648
Flags: MW
HStem: -2 21G<549.5 582> 290 104 662 136<273 327.5>
VStem: 10 620
LayerCount: 2
Fore
SplineSet
283 662 m 0
 263 662 247 631 234 592 c 0
 221 555 214 513 210 496 c 0
 205 472 193 449 193 423 c 0
 193 406 197 399 202 397 c 0
 205 395 209 394 215 394 c 0
 220 394 226 394 233 394 c 0
 260 394 425 401 437 411 c 1
 446 420 449 432 449 446 c 0
 449 524 372 662 283 662 c 0
568 -2 m 0
 531 -2 515 29 508 63 c 0
 504 81 503 100 501 117 c 0
 499 134 497 150 494 162 c 0
 488 182 485 200 481 216 c 0
 478 232 473 245 467 256 c 0
 455 278 433 291 386 291 c 0
 351 291 195 292 173 279 c 0
 159 271 151 252 147 226 c 0
 142 199 141 168 138 138 c 0
 133 78 124 18 77 18 c 0
 30 18 10 31 10 70 c 0
 10 74 11 127 14 139 c 0
 17 151 21 164 22 170 c 0
 33 228 39 288 54 346 c 0
 71 413 93 478 113 544 c 0
 125 582 135 645 155 699 c 0
 175 753 206 798 261 798 c 0
 476 798 530 569 556 402 c 0
 562 360 581 286 598 215 c 0
 615 144 631 75 631 44 c 0
 631 7 596 -2 568 -2 c 0
EndSplineSet
EndChar

StartChar: b
Encoding: 98 98 65
Width: 623
Flags: MW
HStem: -4 99 683 116
VStem: 39 108<311.5 448.5> 388 120 462 137<207.5 261.5 176 283.5>
LayerCount: 2
Fore
SplineSet
355 379 m 0xe8
 325 388 288 379 257 379 c 0
 224 379 184 398 184 438 c 0
 184 476 224 494 256 496 c 0
 315 499 389 560 389 623 c 0
 389 672 335 683 294 683 c 0
 179 683 136 629 136 519 c 0
 136 455 147 392 147 329 c 0
 147 294 140 261 140 226 c 0
 140 128 168 121 258 100 c 0
 272 97 287 95 301 95 c 0
 387 95 462 164 462 251 c 0
 462 316 416 362 355 379 c 0xe8
304 -3 m 0
 232 -3 150 1 79 20 c 0
 54 26 43 71 38 116 c 0
 32 161 33 210 33 228 c 0
 33 294 39 359 39 424 c 0
 39 473 36 521 36 569 c 0
 36 604 35 707 68 726 c 0
 122 758 200 800 264 800 c 0
 364 800 508 697 508 588 c 0xf0
 508 543 483 519 457 501 c 0
 445 493 432 486 423 479 c 0
 414 472 409 466 409 459 c 0
 409 452 415 446 427 440 c 1
 438 433 454 427 471 420 c 0
 504 407 542 390 556 361 c 0
 575 322 599 284 599 239 c 0
 599 113 418 -3 304 -3 c 0
EndSplineSet
EndChar

StartChar: c
Encoding: 99 99 66
Width: 589
Flags: MW
HStem: -8 114<339.5 388 290.5 393> 669 135
VStem: 16 104<315 428 315 490.5>
LayerCount: 2
Fore
SplineSet
349 -8 m 0
 330 -8 311 -8 293 -6 c 0
 108 11 16 226 16 389 c 0
 16 592 151 804 373 804 c 0
 430 804 539 768 539 695 c 0
 539 676 530 631 503 631 c 0
 496 631 487 633 477 637 c 0
 467 641 456 645 444 650 c 0
 419 660 390 670 358 670 c 0
 336 670 314 666 293 660 c 0
 202 634 120 473 120 383 c 0
 120 247 218 106 363 106 c 0
 413 106 436 126 456 145 c 0
 466 155 475 165 486 172 c 0
 498 180 511 185 529 185 c 0
 565 185 566 156 566 130 c 0
 566 14 437 -8 349 -8 c 0
EndSplineSet
EndChar

StartChar: d
Encoding: 100 100 67
Width: 629
Flags: MW
HStem: 1 109<165 258 165 282> 688 109<234.5 262.5>
VStem: 14 123 33 128 490 126
LayerCount: 2
Fore
SplineSet
399 647 m 0xe8
 355 667 286 688 239 688 c 0
 230 688 222 688 214 686 c 0
 185 679 173 676 167 668 c 0
 164 665 163 660 162 653 c 0
 161 645 161 636 161 624 c 0xd8
 161 494 161 358 145 230 c 0
 142 205 137 181 137 156 c 0
 137 125 149 110 181 110 c 0
 335 110 491 362 491 502 c 0
 491 570 461 618 399 647 c 0xe8
584 350 m 0
 495 169 396 1 168 1 c 0
 90 1 15 3 15 103 c 0
 15 145 26 185 29 226 c 0
 39 343 34 463 34 581 c 0
 34 602 32 650 36 695 c 0
 40 739 50 782 76 788 c 0
 108 796 146 797 178 797 c 0
 359 797 616 693 616 477 c 0
 616 432 603 389 584 350 c 0
EndSplineSet
EndChar

StartChar: e
Encoding: 101 101 68
Width: 599
Flags: MW
HStem: -2 21G 12 130 374 104 661 137 674 124<67.5 242.5>
VStem: 24 99 39 95
LayerCount: 2
Fore
SplineSet
449 17 m 0xb4
 382 11 308 12 284 12 c 0x74
 223 12 163 -3 102 -3 c 0
 91 -3 81 -3 70 -1 c 0
 44 3 33 51 28 99 c 0
 23 148 25 201 25 222 c 0
 25 327 40 433 40 539 c 0
 40 599 38 662 28 722 c 0
 27 731 25 740 25 748 c 0
 25 788 50 798 85 798 c 0
 217 798 351 796 484 796 c 0
 504 796 541 763 541 742 c 0
 541 675 446 662 401 662 c 0
 337 662 274 674 211 674 c 0
 195 674 176 674 161 669 c 0
 139 661 134 555 134 534 c 0xaa
 134 492 136 478 183 478 c 0
 218 478 253 486 289 486 c 0
 328 486 354 478 354 433 c 0
 354 393 326 378 293 374 c 0
 276 372 258 372 241 373 c 0
 225 373 209 375 197 375 c 0
 155 375 137 363 129 345 c 0
 125 335 124 323 123 309 c 0
 123 295 123 279 123 261 c 0
 123 244 125 147 137 137 c 0
 148 128 165 128 180 128 c 0
 253 128 326 143 400 143 c 0
 440 143 581 140 581 73 c 0
 581 38 516 23 449 17 c 0xb4
EndSplineSet
EndChar

StartChar: f
Encoding: 102 102 69
Width: 541
Flags: MW
HStem: -6 21G 363 116 369 95 683 118 688 113<171 280.5>
VStem: 38 115 51 122
LayerCount: 2
Fore
SplineSet
474 676 m 0xca
 425 676 426 684 377 684 c 0
 338 684 300 688 261 688 c 0
 233 688 177 685 160 661 c 0
 157 657 157 631 157 625 c 0
 157 605 161 489 168 479 c 0
 177 467 192 465 208 465 c 0
 249 465 290 480 331 480 c 0
 364 480 387 467 387 430 c 0
 387 381 361 363 315 363 c 0xcc
 284 363 253 369 222 369 c 0
 172 369 153 359 153 308 c 0xb4
 153 251 173 196 173 140 c 0
 173 128 174 113 173 98 c 0
 172 57 164 -5 109 -5 c 0
 98 -5 87 -3 76 0 c 0
 58 6 53 38 51 70 c 0
 49 102 52 136 52 151 c 0
 52 258 39 365 39 473 c 0
 39 534 30 595 30 657 c 0
 30 731 37 768 62 785 c 0
 74 794 90 798 110 800 c 0
 130 802 155 801 187 801 c 2
 456 799 l 2
 495 799 556 794 556 742 c 0
 556 697 520 676 474 676 c 0xca
EndSplineSet
EndChar

StartChar: g
Encoding: 103 103 70
Width: 695
Flags: MW
HStem: 2 116 331 119 668 131
VStem: 6 112<375.5 436 317 503> 553 111
LayerCount: 2
Fore
SplineSet
383 3 m 0
 357 3 331 5 305 10 c 0
 184 33 49 160 20 280 c 0
 11 318 6 356 6 395 c 0
 6 611 169 800 392 800 c 0
 448 800 571 767 571 693 c 0
 571 673 561 630 533 630 c 0
 523 630 512 633 501 636 c 0
 489 640 477 645 464 649 c 0
 437 659 408 668 376 668 c 0
 352 668 328 665 305 659 c 0
 212 635 118 483 118 389 c 0
 118 245 235 119 381 119 c 0
 426 119 465 133 494 168 c 0
 517 196 553 272 553 307 c 0
 553 334 525 338 501 338 c 0
 471 338 441 332 411 332 c 0
 357 332 338 356 338 409 c 0
 338 443 501 450 524 450 c 0
 545 450 595 451 615 440 c 0
 625 435 655 412 659 400 c 1
 662 387 664 371 665 354 c 0
 665 338 665 322 665 308 c 0
 665 121 574 3 383 3 c 0
EndSplineSet
EndChar

StartChar: h
Encoding: 104 104 71
Width: 618
Flags: MW
HStem: 0 21G 399 85 782 20G
VStem: 33 122 440 134<140 161.5 121 180.5> 449 136 461 105
LayerCount: 2
Fore
SplineSet
572 539 m 0xf4
 568 509 567 454 567 398 c 0
 567 341 568 284 568 249 c 0
 568 214 574 179 574 144 c 0
 574 98 569 -1 501 -1 c 0
 442 -1 440 121 440 159 c 0xf8
 440 202 443 246 446 289 c 0
 447 314 461 338 461 364 c 0xf2
 461 390 446 399 420 399 c 0
 375 399 174 380 159 348 c 0
 150 330 149 306 149 285 c 0
 149 226 161 168 161 109 c 0
 161 61 151 1 88 1 c 0
 23 1 22 108 22 150 c 0
 22 194 27 237 30 281 c 0
 38 384 30 492 30 596 c 0
 30 611 30 657 35 700 c 0
 40 742 51 784 77 784 c 0
 99 784 165 773 165 741 c 0
 165 685 156 628 156 571 c 0
 156 553 156 539 157 527 c 0
 157 516 159 507 163 501 c 0
 171 489 187 485 224 485 c 0
 290 485 374 490 438 507 c 0
 458 513 459 538 459 557 c 0
 459 604 449 651 449 698 c 0
 449 745 458 803 520 803 c 0
 581 803 586 719 586 677 c 0
 586 630 578 585 572 539 c 0xf4
EndSplineSet
EndChar

StartChar: i
Encoding: 105 105 72
Width: 202
Flags: MW
HStem: -1 21G<57.5 113.5> 784 20G
VStem: 27 121<93.5 178.5> 50 122<568.5 749>
LayerCount: 2
Fore
SplineSet
164 629 m 0xd0
 153 492 158 354 150 218 c 0
 148 184 148 151 148 117 c 0
 148 70 141 -1 86 -1 c 0
 29 -1 27 125 27 167 c 0xe0
 27 190 28 212 30 235 c 0
 40 366 50 503 50 634 c 0
 50 664 48 695 48 726 c 0
 48 778 61 805 109 805 c 0
 155 805 172 774 172 724 c 0
 172 692 166 660 164 629 c 0xd0
EndSplineSet
EndChar

StartChar: j
Encoding: 106 106 73
Width: 600
Flags: MW
HStem: 3 102 679 112 696 104<474 491>
VStem: 354 114<505 527 477 543.5>
LayerCount: 2
Fore
SplineSet
561 692 m 0xd0
 532 692 505 696 477 696 c 0
 471 696 466 696 461 695 c 0
 456 694 453 692 453 687 c 0
 453 662 463 637 465 612 c 0
 468 578 468 544 468 510 c 0
 468 444 466 378 464 312 c 0
 458 158 432 4 240 4 c 0
 175 4 38 34 38 123 c 0
 38 145 62 168 84 168 c 0
 92 168 102 164 112 158 c 0
 123 152 134 144 146 136 c 0
 171 120 198 105 228 105 c 0
 290 105 320 140 336 187 c 0
 344 211 347 237 349 264 c 0
 351 290 351 316 351 338 c 0
 351 404 354 472 354 538 c 0
 354 549 355 586 352 620 c 0
 349 655 334 680 322 681 c 0
 307 683 291 683 275 682 c 0
 258 681 242 680 226 680 c 0
 195 680 108 679 108 724 c 0
 108 775 133 786 183 786 c 0
 211 786 238 792 266 792 c 0
 333 792 400 800 467 800 c 0xb0
 515 800 633 802 633 732 c 0
 633 695 584 692 561 692 c 0xd0
EndSplineSet
EndChar

StartChar: k
Encoding: 107 107 74
Width: 573
Flags: MW
HStem: -1 21G<88.5 122 518 541.5> 771 20G 773 20G
VStem: 26 110
LayerCount: 2
Fore
SplineSet
529 -1 m 0
 507 -1 486 20 469 43 c 0
 460 55 451 68 443 79 c 0
 435 91 428 101 422 107 c 0
 404 126 350 188 295 246 c 0
 239 305 185 356 166 356 c 0
 157 356 153 343 151 328 c 0
 149 312 149 294 149 288 c 0
 149 210 165 133 165 56 c 0
 165 23 138 -1 106 -1 c 0
 71 -1 56 25 53 55 c 0
 29 272 34 506 26 722 c 0
 25 753 44 794 81 794 c 0
 129 794 135 723 136 656 c 0
 137 622 136 587 137 560 c 0
 138 531 142 514 150 510 c 1
 152 510 l 2
 156 510 177 526 199 546 c 0
 221 565 243 585 250 591 c 0
 318 647 377 721 431 792 c 1
 456 792 492 787 492 754 c 0
 492 702 427 631 364 569 c 0
 332 538 300 509 276 486 c 0
 251 462 237 446 237 440 c 0
 237 417 317 366 336 350 c 0
 396 299 574 123 574 45 c 0
 574 21 554 -1 529 -1 c 0
EndSplineSet
EndChar

StartChar: l
Encoding: 108 108 75
Width: 526
Flags: MW
HStem: -4 114<353.5 363> 780 20G<113.5 143>
VStem: 29 124 56 109
LayerCount: 2
Fore
SplineSet
431 2 m 0xd0
 406 -5 376 -4 350 -4 c 0
 319 -4 289 -1 258 0 c 0
 226 1 194 -3 163 -3 c 0
 105 -3 29 5 29 82 c 0xe0
 29 233 34 384 41 535 c 0
 45 607 47 682 57 754 c 0
 63 798 96 800 131 800 c 0
 155 800 164 793 167 779 c 0
 168 773 168 765 167 756 c 0
 166 748 165 738 165 727 c 0
 165 684 154 528 154 485 c 0
 154 366 149 361 140 242 c 0
 138 212 131 167 131 137 c 0
 131 119 139 113 150 112 c 0
 157 111 164 112 172 112 c 0
 180 112 189 113 197 113 c 0
 263 113 321 110 386 110 c 0
 423 110 475 114 475 61 c 0
 475 25 456 9 431 2 c 0xd0
EndSplineSet
EndChar

StartChar: m
Encoding: 109 109 76
Width: 654
Flags: MW
HStem: 3 21G 488 124 768 20G
VStem: 19 114<504 539.5 539.5 552 487 573> 31 116 486 119 506 98
LayerCount: 2
Fore
SplineSet
604 413 m 0xea
 604 388 606 364 606 340 c 0
 606 260 602 180 602 101 c 0
 602 77 598 5 566 5 c 0
 492 5 487 71 487 126 c 0
 487 244 507 361 507 480 c 0
 507 513 514 547 514 581 c 0
 514 584 514 591 513 598 c 0
 512 603 511 608 507 608 c 0
 499 608 488 601 473 590 c 0
 458 579 441 564 422 549 c 0
 385 519 341 489 300 489 c 0
 268 489 239 514 214 538 c 0
 201 550 189 563 178 572 c 0
 167 581 157 586 148 586 c 0
 140 586 136 579 134 568 c 0
 133 563 133 557 133 552 c 0
 133 546 133 541 133 538 c 0
 133 436 148 336 148 234 c 0
 148 217 148 160 142 108 c 0
 137 56 125 4 97 4 c 0
 29 4 24 83 24 132 c 0
 24 178 32 224 32 271 c 0
 32 364 19 457 19 551 c 0xf4
 19 595 25 780 99 780 c 0
 130 780 168 737 204 696 c 0
 222 675 239 654 255 638 c 0
 271 622 285 612 295 612 c 0
 309 612 327 623 349 640 c 0
 371 656 395 678 419 700 c 0
 467 744 518 789 553 789 c 0
 619 789 627 724 627 674 c 0
 627 587 604 500 604 413 c 0xea
EndSplineSet
EndChar

StartChar: n
Encoding: 110 110 77
Width: 576
Flags: MW
HStem: -4 21G<78 122.5> 551 189 781 20G
VStem: 25 109 34 126 449 108 467 102
LayerCount: 2
Fore
SplineSet
476 -3 m 0
 404 -3 335 152 312 207 c 0
 292 253 152 552 126 552 c 0
 122 552 124 533 124 532 c 0
 124 463 139 396 139 328 c 0
 139 256 150 185 150 113 c 0
 150 80 146 -4 99 -4 c 0
 57 -4 24 55 24 91 c 0
 24 247 16 403 16 559 c 0
 16 598 16 740 82 740 c 0
 187 740 372 381 405 289 c 0
 407 283 416 256 426 230 c 0
 436 205 446 180 453 180 c 0
 456 180 456 187 456 194 c 0
 457 201 457 209 457 210 c 0
 457 280 441 351 440 420 c 2
 439 557 l 2
 439 618 437 685 445 746 c 0
 451 789 489 802 525 802 c 0
 543 802 550 767 553 736 c 0
 556 703 556 668 556 659 c 0
 556 576 547 494 547 412 c 0
 547 340 559 270 559 199 c 0
 559 148 559 -3 476 -3 c 0
EndSplineSet
EndChar

StartChar: o
Encoding: 111 111 78
Width: 602
Flags: MW
HStem: -8 116 681 120 781 20G
VStem: 3 109 493 97
LayerCount: 2
Fore
SplineSet
379 659 m 0x98
 365 671 328 682 310 682 c 0
 299 682 272 669 262 663 c 0
 162 603 122 429 114 319 c 2
 113 305 l 2
 107 214 196 108 291 108 c 0
 402 108 493 272 493 373 c 0
 493 436 427 621 379 659 c 0x98
487 96 m 0
 445 35 390 -7 313 -7 c 0
 144 -7 3 179 3 338 c 0
 3 516 113 763 306 800 c 0
 313 801 319 802 325 802 c 0
 486 802 591 495 591 366 c 0
 591 274 538 171 487 96 c 0
EndSplineSet
EndChar

StartChar: p
Encoding: 112 112 79
Width: 517
Flags: MW
HStem: 0 21G<52 97> 293 99 691 106
VStem: 33 97 414 111
LayerCount: 2
Fore
SplineSet
310 690 m 0
 288 691 265 692 243 692 c 0
 223 692 205 692 191 691 c 0
 176 690 165 687 156 683 c 0
 139 674 130 655 130 614 c 0
 130 581 136 429 155 409 c 0
 169 395 192 393 212 393 c 0
 309 393 415 423 415 537 c 0
 415 597 377 687 310 690 c 0
436 350 m 0
 363 285 260 294 171 294 c 0
 142 294 140 279 140 256 c 0
 140 249 140 240 140 232 c 0
 140 208 143 151 137 99 c 0
 132 48 116 0 78 0 c 0
 26 0 24 84 24 116 c 0
 24 214 34 313 34 413 c 0
 34 524 30 634 30 745 c 0
 30 793 235 797 271 797 c 0
 416 797 526 704 526 555 c 0
 526 478 493 401 436 350 c 0
EndSplineSet
EndChar

StartChar: q
Encoding: 113 113 80
Width: 667
Flags: MW
HStem: -13 100 687 112
VStem: 24 101 536 96
LayerCount: 2
Fore
SplineSet
536 415 m 0
 532 440 528 464 524 486 c 0
 520 509 515 530 507 549 c 0
 492 588 467 622 420 649 c 0
 389 667 358 688 321 688 c 0
 225 688 144 560 131 472 c 0
 127 448 125 424 125 399 c 0
 125 268 179 88 335 88 c 0
 377 88 416 103 444 134 c 1
 412 161 341 224 341 272 c 0
 341 290 359 311 378 311 c 0
 402 311 428 286 450 262 c 0
 461 250 471 238 480 229 c 0
 490 220 497 214 502 214 c 0
 527 214 537 377 537 403 c 0
 537 406 537 411 536 415 c 0
618 -12 m 0
 599 -12 578 10 561 31 c 0
 552 41 544 52 537 59 c 0
 531 66 527 72 525 72 c 2
 522 72 l 1
 509 62 497 51 486 40 c 0
 474 29 461 19 445 12 c 0
 408 -4 363 -12 323 -12 c 0
 109 -12 25 227 25 405 c 0
 25 581 106 800 316 800 c 0
 323 800 330 800 337 799 c 0
 378 794 495 737 522 705 c 0
 604 609 632 506 632 380 c 0
 632 319 620 260 597 204 c 0
 592 191 586 178 579 165 c 0
 579 164 578 163 577 162 c 2
 575 159 l 2
 574 157 574 156 574 154 c 0
 574 150 579 142 589 132 c 0
 599 122 612 110 625 97 c 0
 651 72 679 41 679 14 c 0
 679 -8 631 -12 618 -12 c 0
EndSplineSet
EndChar

StartChar: r
Encoding: 114 114 81
Width: 591
Flags: MW
HStem: -1 21G 337 93 700 95 772 20G
VStem: 32 95 431 102
LayerCount: 2
Fore
SplineSet
307 681 m 0xdc
 267 691 226 701 185 701 c 0
 155 701 141 695 135 683 c 0
 131 677 130 670 129 660 c 0
 128 651 128 640 128 627 c 0
 128 565 135 503 143 442 c 1
 155 431 189 431 206 431 c 0
 282 431 432 467 432 559 c 0
 432 636 373 665 307 681 c 0xdc
556 -17 m 0
 533 -17 503 6 471 39 c 0
 439 73 403 117 367 161 c 0
 294 251 221 338 173 338 c 0
 144 338 130 319 130 291 c 0
 130 232 147 174 147 114 c 0
 147 72 141 0 81 0 c 0
 51 0 36 38 35 62 c 0
 27 236 32 410 32 584 c 0
 32 632 22 679 22 727 c 0
 22 795 144 795 191 795 c 0xec
 228 795 265 793 301 793 c 0
 420 793 533 673 533 556 c 0
 533 496 502 440 457 403 c 0
 449 397 436 392 422 388 c 0
 409 384 394 381 379 377 c 0
 352 371 329 367 329 356 c 0
 329 337 396 265 465 192 c 0
 499 155 533 119 558 90 c 0
 584 61 602 38 602 28 c 0
 602 8 576 -17 556 -17 c 0
EndSplineSet
EndChar

StartChar: s
Encoding: 115 115 82
Width: 510
Flags: MW
HStem: -6 106 687 106
VStem: 42 110 413 102
LayerCount: 2
Fore
SplineSet
215 -4 m 0
 140 -4 -13 102 -13 185 c 0
 -13 215 23 222 45 222 c 0
 72 222 93 203 109 183 c 0
 115 176 121 169 127 161 c 0
 151 131 175 102 212 102 c 0
 306 102 393 173 393 272 c 0
 393 315 354 337 305 348 c 0
 256 360 200 361 167 365 c 0
 82 375 22 460 22 542 c 0
 22 654 91 796 218 796 c 0
 297 796 471 747 471 644 c 0
 471 624 437 591 417 591 c 0
 404 591 391 598 378 607 c 0
 365 616 351 629 337 641 c 0
 308 666 277 689 242 689 c 0
 178 689 133 597 133 540 c 0
 133 518 139 495 155 480 c 0
 164 472 186 466 218 460 c 0
 249 455 287 449 325 441 c 0
 400 425 476 397 488 333 c 0
 493 309 495 284 495 260 c 0
 495 93 375 -4 215 -4 c 0
EndSplineSet
EndChar

StartChar: t
Encoding: 116 116 83
Width: 641
Flags: MW
HStem: -7 21G 684 118 684 125
VStem: 268 100
LayerCount: 2
Fore
SplineSet
555 690 m 0xd0
 533 686 510 684 489 684 c 0
 467 683 448 684 433 684 c 0
 428 684 415 685 403 684 c 0xb0
 390 682 380 680 378 675 c 0
 372 664 370 623 369 580 c 0
 368 538 368 494 368 477 c 0
 368 449 364 422 364 394 c 2
 364 380 l 2
 364 290 378 201 378 112 c 0
 378 104 378 92 378 80 c 0
 377 51 373 -6 332 -6 c 0
 293 -6 276 30 269 71 c 0
 265 91 263 113 262 133 c 0
 262 152 262 170 262 182 c 0
 262 281 269 379 269 477 c 0
 269 502 266 673 258 680 c 0
 257 681 252 681 250 681 c 0
 202 681 154 672 105 672 c 0
 82 672 12 673 12 709 c 0
 12 729 31 750 43 762 c 0
 65 785 166 793 271 797 c 0
 323 799 377 800 424 802 c 0
 470 804 509 806 531 810 c 0
 537 811 543 812 550 812 c 0
 575 812 634 799 634 763 c 0
 634 717 597 699 555 690 c 0xd0
EndSplineSet
EndChar

StartChar: u
Encoding: 117 117 84
Width: 620
Flags: MW
HStem: -14 126 778 20G<459.5 535>
VStem: 10 107 476 122
LayerCount: 2
Fore
SplineSet
454 22 m 0
 406 0 351 -14 297 -14 c 0
 111 -14 21 154 21 321 c 0
 21 346 23 370 26 395 c 0
 31 430 36 525 51 611 c 0
 66 696 91 777 140 777 c 0
 178 777 185 730 185 703 c 0
 185 663 176 625 166 588 c 0
 155 551 144 514 139 476 c 0
 132 429 128 381 128 333 c 0
 128 208 165 113 306 113 c 0
 388 113 430 168 453 240 c 0
 464 276 471 316 476 354 c 0
 480 392 483 429 485 459 c 0
 486 467 487 475 487 484 c 0
 487 572 437 651 437 740 c 0
 437 773 439 798 480 798 c 0
 590 798 609 535 609 458 c 0
 609 354 561 72 454 22 c 0
EndSplineSet
EndChar

StartChar: v
Encoding: 118 118 85
Width: 635
Flags: MW
HStem: 773 20G 777 20G<74 100.5>
VStem: 34 567
LayerCount: 2
Fore
SplineSet
536 481 m 0xa0
 502 368 463 249 451 199 c 0
 448 184 444 163 437 140 c 0
 431 118 422 93 412 70 c 0
 392 25 364 -15 322 -15 c 0
 280 -15 248 33 237 68 c 0
 216 134 34 711 34 725 c 0
 34 760 54 797 94 797 c 0x60
 107 797 122 794 134 787 c 0
 154 777 176 710 194 641 c 0
 212 572 228 499 234 475 c 0
 254 391 302 316 321 232 c 0
 322 230 323 224 325 218 c 0
 326 214 328 210 331 210 c 0
 348 210 368 298 371 312 c 0
 391 400 419 485 441 572 c 0
 448 601 455 656 470 704 c 0
 485 751 509 794 551 794 c 0
 580 794 602 762 602 736 c 0
 602 704 571 595 536 481 c 0xa0
EndSplineSet
EndChar

StartChar: w
Encoding: 119 119 86
Width: 777
Flags: MW
HStem: -10 21G<226 260> -5 21G<508.5 539.5> 778 20G<654 712.5>
VStem: 33 729
LayerCount: 2
Fore
SplineSet
747 687 m 0xb0
 744 672 740 657 736 643 c 0
 693 492 645 343 611 190 c 0
 606 165 602 136 595 107 c 0
 589 79 580 50 568 27 c 0
 561 12 550 -5 529 -5 c 0x70
 488 -5 460 43 437 89 c 0
 425 112 415 135 405 152 c 0
 395 170 385 180 377 180 c 0
 371 180 365 168 357 151 c 0
 349 134 339 110 327 86 c 0
 305 40 277 -10 243 -10 c 0
 209 -10 189 41 180 69 c 0
 177 80 174 90 172 97 c 0
 136 216 23 608 23 719 c 0
 23 746 26 797 67 797 c 0
 80 797 93 792 105 786 c 0
 135 771 165 644 191 512 c 0
 217 379 236 237 251 193 c 2
 252 190 l 2
 253 188 254 184 257 184 c 0
 261 184 267 192 277 208 c 0
 286 223 296 243 307 263 c 0
 329 301 355 343 380 343 c 0
 401 343 427 306 449 271 c 0
 461 253 472 235 481 222 c 0
 491 208 498 201 501 201 c 0
 502 201 503 202 504 204 c 0
 506 208 l 2
 515 226 518 249 522 272 c 0
 525 294 527 317 531 338 c 0
 542 406 618 798 690 798 c 0
 735 798 752 773 752 732 c 0
 752 717 750 702 747 687 c 0xb0
EndSplineSet
EndChar

StartChar: x
Encoding: 120 120 87
Width: 689
Flags: MW
HStem: -14 21G 4 21G<558 592> 778 20G
VStem: 36 629 261 175
LayerCount: 2
Fore
SplineSet
550 560 m 0xb0
 521 528 493 497 472 471 c 0
 450 444 437 423 437 409 c 0
 437 365 485 291 536 222 c 0
 561 187 587 155 606 127 c 0
 624 99 637 76 637 63 c 0
 637 39 604 4 580 4 c 0x70
 536 4 491 80 452 153 c 0
 432 190 413 227 396 255 c 0
 378 283 364 300 354 300 c 0
 339 300 322 282 302 252 c 0
 283 223 262 184 239 145 c 0
 193 67 138 -13 73 -13 c 0
 49 -13 37 7 37 28 c 0
 37 83 94 159 149 229 c 0
 177 264 206 298 227 328 c 0
 248 358 261 382 261 398 c 0xa8
 261 450 209 517 157 577 c 0
 130 608 104 636 84 660 c 0
 65 684 51 705 51 719 c 0
 51 750 79 769 108 769 c 0
 155 769 283 607 300 564 c 0
 309 543 322 509 348 509 c 0
 368 509 389 526 410 553 c 0
 421 567 431 583 442 599 c 0
 453 616 464 635 475 653 c 0
 519 724 566 799 620 799 c 0
 646 799 666 788 666 760 c 0
 666 697 607 625 550 560 c 0xb0
EndSplineSet
EndChar

StartChar: y
Encoding: 121 121 88
Width: 620
Flags: MW
HStem: -11 21G<290 316.5> 777 20G<66.5 98 531 563.5>
VStem: 245 98
LayerCount: 2
Fore
SplineSet
542 637 m 0
 510 589 475 541 460 516 c 0
 453 505 427 470 404 437 c 0
 380 402 358 370 357 362 c 0
 346 299 343 231 343 167 c 0
 343 122 351 76 351 31 c 0
 351 3 329 -11 304 -11 c 0
 276 -11 245 6 245 38 c 2
 246 344 l 2
 246 368 233 398 212 433 c 0
 192 468 164 507 137 546 c 0
 83 624 27 704 27 762 c 0
 27 786 58 797 75 797 c 0
 121 797 170 711 212 629 c 0
 233 587 253 545 270 514 c 0
 287 482 300 463 308 463 c 0
 315 463 330 482 349 514 c 0
 367 545 390 587 413 629 c 0
 459 711 511 797 551 797 c 0
 576 797 601 784 601 755 c 0
 601 732 573 684 542 637 c 0
EndSplineSet
EndChar

StartChar: z
Encoding: 122 122 89
Width: 538
Flags: MW
HStem: -8 132 5 119<304.5 412.5> 689 109<286.5 357>
VStem: 16 133<38.5 139.5> 16 492 357 151
LayerCount: 2
Fore
SplineSet
328 429 m 0x68
 283 363 239 298 205 244 c 0
 171 190 149 149 149 130 c 0xb4
 149 115 178 116 188 116 c 0
 235 116 281 124 328 124 c 0
 364 124 495 125 495 68 c 0
 495 28 475 12 448 7 c 0
 435 4 420 5 405 5 c 0
 390 6 375 7 362 7 c 0
 289 7 216 -7 143 -7 c 0
 89 -7 16 3 16 74 c 0
 16 141 76 224 111 278 c 0
 171 368 214 468 277 556 c 0
 291 576 358 661 358 679 c 0
 358 688 320 689 314 689 c 0
 259 689 206 668 152 658 c 0
 134 654 116 652 98 652 c 0
 66 652 41 691 41 720 c 0
 41 761 104 780 170 789 c 0
 237 798 311 798 337 798 c 0
 377 798 508 806 508 741 c 0
 508 694 417 560 328 429 c 0x68
EndSplineSet
EndChar

StartChar: bar
Encoding: 124 124 90
Width: 151
Flags: MW
HStem: -29 867
VStem: 36 81
LayerCount: 2
Fore
SplineSet
120 533 m 0
 118 433 116 303 117 194 c 0
 117 164 120 121 119 83 c 0
 119 45 117 10 107 -5 c 0
 78 -50 42 -26 38 20 c 0
 34 66 28 115 29 154 c 0
 37 386 25 561 36 787 c 0
 37 797 37 804 38 810 c 0
 39 822 43 828 54 832 c 0
 59 834 66 835 75 838 c 0
 102 845 114 826 120 798 c 0
 123 784 124 767 125 748 c 0
 125 729 125 710 125 690 c 0
 125 660 121 557 120 533 c 0
EndSplineSet
EndChar

StartChar: section
Encoding: 167 167 91
Width: 468
Flags: MW
HStem: 0 72 490 93 783 20G
VStem: 36 107 72 88 357 98 364 56
LayerCount: 2
Fore
SplineSet
250 490 m 0xea
 217 487 173 444 165 420 c 0
 146 366 205 291 235 285 c 0
 294 272 376 360 354 438 c 0
 346 464 293 495 250 490 c 0xea
382 24 m 0
 364 15 346 9 328 6 c 0
 311 3 295 2 282 0 c 0
 205 -12 68 38 73 134 c 0
 74 166 109 233 159 182 c 0
 162 178 163 174 162 169 c 0
 162 164 160 159 159 154 c 0
 156 144 153 134 157 129 c 0
 217 53 305 61 350 110 c 0
 366 127 371 173 348 198 c 0
 342 204 326 202 304 198 c 0
 294 196 283 194 273 192 c 0
 263 191 253 190 246 191 c 0
 135 207 88 320 80 351 c 0
 62 420 81 470 94 500 c 0
 98 508 89 520 75 533 c 0
 68 539 62 545 56 551 c 0
 50 556 45 562 44 566 c 0
 11 650 99 791 213 803 c 0
 254 807 315 794 356 763 c 0
 368 754 396 724 409 697 c 0
 423 669 423 641 376 639 c 0
 314 636 306 716 225 708 c 0
 187 704 148 654 143 626 c 0xf2
 138 593 152 585 173 584 c 0
 195 583 224 591 246 590 c 0
 308 587 392 566 419 524 c 0
 435 499 452 455 455 422 c 0xec
 460 364 440 316 424 280 c 0
 417 264 423 251 431 238 c 0
 434 234 438 229 441 225 c 0
 455 206 471 184 465 153 c 0
 451 79 418 43 382 24 c 0
EndSplineSet
EndChar

StartChar: quotesingle
Encoding: 39 39 92
Width: 157
Flags: MW
HStem: 516 276
VStem: 49 92
LayerCount: 2
Fore
SplineSet
63 529 m 0
 54 545 51 573 50 604 c 0
 48 666 58 744 66 765 c 0
 71 779 83 789 96 792 c 0
 135 799 144 737 141 676 c 0
 138 615 123 546 108 531 c 0
 88 511 73 513 63 529 c 0
EndSplineSet
EndChar

StartChar: endash
Encoding: 8211 8211 93
Width: 372
Flags: MW
HStem: 322 91
VStem: 30 320
LayerCount: 2
Fore
SplineSet
314 326 m 0
 300 323 285 322 270 322 c 0
 255 322 242 323 232 323 c 0
 218 323 198 323 179 323 c 0
 159 323 140 323 125 325 c 0
 113 327 93 326 74 328 c 0
 57 329 39 333 35 345 c 0
 27 372 32 387 42 395 c 0
 52 403 65 405 77 407 c 0
 137 415 205 416 262 411 c 0
 275 410 294 409 310 406 c 0
 325 403 341 399 345 390 c 0
 360 351 341 333 314 326 c 0
EndSplineSet
EndChar

StartChar: paragraph
Encoding: 182 182 94
Width: 557
Flags: MW
HStem: -4 21G -2 21G<275.5 294 294 341> 718 79
VStem: 253 98 444 101
LayerCount: 2
Fore
SplineSet
541 150 m 0xb8
 543 93 543 39 537 11 c 0
 534 0 525 -4 513 -5 c 0
 501 -6 486 -4 471 -3 c 0
 447 -2 442 210 444 292 c 0
 445 363 443 399 445 460 c 0
 446 478 450 532 450 585 c 0
 451 638 448 689 441 703 c 0
 431 723 398 721 364 713 c 0
 351 710 347 667 346 615 c 0
 346 565 349 510 350 491 c 0
 351 442 351 379 351 326 c 0
 351 282 353 219 353 159 c 0
 353 98 350 38 341 -2 c 1
 294 -2 l 2x78
 257 -2 252 64 253 131 c 0
 253 165 255 201 255 232 c 0
 254 263 252 288 246 302 c 0
 239 317 222 323 201 327 c 0
 179 332 156 334 135 345 c 0
 83 371 46 413 35 465 c 0
 -1 630 94 768 225 788 c 0
 301 799 393 796 472 798 c 0
 485 798 495 799 502 799 c 0
 510 799 516 798 521 795 c 0
 530 789 531 775 534 747 c 0
 543 646 549 396 542 311 c 0
 538 268 540 207 541 150 c 0xb8
EndSplineSet
EndChar

StartChar: bullet
Encoding: 8226 8226 95
Width: 307
Flags: MW
HStem: 287 255
VStem: 37 252
LayerCount: 2
Fore
SplineSet
41 380 m 0
 26 447 61 528 158 541 c 0
 311 562 327 347 224 304 c 0
 121 260 56 313 41 380 c 0
EndSplineSet
EndChar

StartChar: questiondown
Encoding: 191 191 97
Width: 433
Flags: MW
HStem: -9 21G 660 109
VStem: 29 111 200 112
LayerCount: 2
Fore
SplineSet
257 -9 m 0
 66 -18 -34 148 73 302 c 0
 100 341 151 368 211 391 c 0
 217 393 216 426 216 459 c 0
 216 476 215 493 215 506 c 0
 215 520 215 530 216 534 c 0
 228 566 293 577 298 544 c 0
 302 513 314 360 298 318 c 0
 292 302 270 296 248 291 c 0
 237 288 225 286 214 284 c 0
 203 282 193 279 186 275 c 0
 113 238 117 67 262 89 c 0
 292 94 312 109 331 131 c 0
 337 137 342 144 348 150 c 0
 369 175 389 194 426 172 c 0
 434 167 447 150 447 131 c 0
 445 64 330 -5 257 -9 c 0
219 757 m 0
 250 781 285 767 302 744 c 0
 320 720 318 685 276 667 c 0
 211 639 176 723 219 757 c 0
EndSplineSet
EndChar

StartChar: circumflex
Encoding: 710 710 98
Width: 339
Flags: MW
HStem: 819 183
VStem: 123 239
LayerCount: 2
Fore
SplineSet
334 827 m 0
 319 830 306 850 298 861 c 0
 293 868 287 874 282 880 c 0
 277 886 270 892 266 897 c 0
 264 899 262 903 259 908 c 0
 256 914 252 920 249 926 c 0
 242 936 237 947 234 946 c 0
 229 943 214 922 210 917 c 0
 203 907 195 895 187 881 c 0
 181 870 178 858 173 846 c 0
 168 835 162 825 151 821 c 0
 137 815 126 823 124 834 c 0
 120 852 137 885 145 897 c 0
 159 919 175 945 191 968 c 0
 200 982 224 1012 241 1000 c 0
 252 993 266 972 272 963 c 0
 279 953 287 940 295 931 c 0
 305 918 319 909 331 899 c 0
 344 889 355 878 361 864 c 0
 368 845 357 822 334 827 c 0
EndSplineSet
EndChar

StartChar: emdash
Encoding: 8212 8212 99
Width: 501
Flags: MW
HStem: 322 88
VStem: 26 454
LayerCount: 2
Fore
SplineSet
429 326 m 0
 410 323 388 321 367 321 c 0
 346 321 327 322 312 322 c 0
 273 323 202 320 160 324 c 0
 143 326 114 325 88 327 c 0
 63 328 38 332 33 344 c 0
 21 371 28 386 43 395 c 0
 57 403 77 405 92 406 c 0
 178 415 274 415 356 410 c 0
 374 409 400 408 423 405 c 0
 446 402 467 398 472 389 c 0
 495 349 467 333 429 326 c 0
EndSplineSet
EndChar

StartChar: trademark
Encoding: 8482 8482 100
Width: 403
Flags: MW
HStem: 654 40
VStem: 85 49 200 37 346 40
LayerCount: 2
Fore
SplineSet
376 461 m 0
 355 461 351 470 350 493 c 0
 350 515 351 552 346 613 c 1
 340 611 333 604 326 595 c 0
 322 590 319 585 315 581 c 0
 312 577 308 573 304 571 c 0
 299 569 294 573 289 577 c 0
 284 582 279 588 274 594 c 0
 265 606 255 619 249 616 c 1
 241 614 238 604 237 588 c 0
 237 573 239 554 240 536 c 0
 243 497 243 460 218 461 c 0
 211 461 207 468 206 475 c 1
 204 481 203 490 203 496 c 0
 195 551 201 607 201 650 c 0
 201 655 158 659 135 650 c 0
 130 648 131 636 131 619 c 0
 131 601 134 578 135 555 c 0
 137 511 138 461 111 461 c 0
 92 461 86 479 85 499 c 0
 83 519 86 543 85 560 c 0
 85 569 88 589 89 607 c 0
 90 626 90 642 85 647 c 0
 83 649 75 650 66 650 c 0
 55 650 43 650 32 651 c 0
 10 652 -13 658 2 684 c 0
 6 692 16 694 25 694 c 0
 35 694 45 693 52 693 c 0
 83 695 177 695 214 695 c 0
 226 695 240 679 254 663 c 0
 261 656 267 649 274 643 c 0
 280 637 286 634 291 634 c 0
 299 634 311 644 323 656 c 0
 329 662 334 669 339 674 c 0
 344 680 349 684 352 687 c 0
 366 697 377 695 382 684 c 0
 387 673 388 656 387 637 c 0
 386 598 387 564 387 524 c 0
 387 501 383 461 376 461 c 0
EndSplineSet
EndChar

StartChar: degree
Encoding: 176 176 101
Width: 240
Flags: MW
HStem: 770 20G
VStem: 15 60 172 53
LayerCount: 2
Fore
SplineSet
169 704 m 0
 159 725 133 741 107 736 c 0
 48 725 79 630 139 649 c 0
 174 660 179 684 169 704 c 0
105 593 m 0
 50 602 -1 650 19 726 c 0
 24 747 61 785 91 790 c 0
 110 793 144 784 163 780 c 0
 192 774 228 735 226 694 c 0
 222 614 161 584 105 593 c 0
EndSplineSet
EndChar

StartChar: registered
Encoding: 174 174 102
Width: 403
Flags: MW
HStem: 294 61 465 61 572 59 656 56
VStem: 0 60 102 58 222 66 324 69
LayerCount: 2
Fore
SplineSet
309 598 m 0
 305 603 298 607 292 610 c 0
 286 614 278 619 273 625 c 0
 256 647 242 657 205 656 c 0
 144 654 103 627 82 588 c 0
 50 530 49 419 103 384 c 1
 99 399 98 414 99 430 c 0
 100 448 102 467 102 491 c 0
 102 503 100 519 99 534 c 0
 97 550 95 564 96 573 c 0
 102 651 298 654 289 560 c 0
 287 539 270 529 256 516 c 0
 249 510 243 503 243 493 c 0
 243 479 252 470 263 460 c 0
 274 450 286 440 290 425 c 0
 295 403 277 375 254 378 c 0
 243 380 234 394 227 407 c 0
 223 414 219 421 215 428 c 0
 211 434 208 440 205 443 c 0
 199 449 180 469 167 466 c 0
 160 464 159 452 159 438 c 1
 158 431 158 423 158 416 c 1
 157 410 157 403 155 398 c 0
 151 389 145 384 139 381 c 0
 134 378 129 376 124 372 c 1
 156 357 200 351 237 356 c 0
 304 364 317 443 325 509 c 0
 329 542 330 573 309 598 c 0
184 573 m 0
 166 571 153 551 165 533 c 0
 179 511 224 552 222 565 c 0
 221 576 196 574 184 573 c 0
390 501 m 0
 387 488 382 475 380 463 c 0
 363 367 308 286 193 294 c 0
 79 302 11 358 1 471 c 0
 -6 556 20 632 63 667 c 0
 86 686 123 709 165 712 c 0
 246 719 339 692 364 634 c 0
 366 629 366 622 368 615 c 0
 369 608 371 600 373 593 c 0
 375 585 380 577 384 570 c 0
 388 562 392 555 393 547 c 0
 395 530 393 515 390 501 c 0
EndSplineSet
EndChar

StartChar: minus
Encoding: 8722 8722 103
Width: 339
Flags: MW
HStem: 322 91
VStem: 54 262
LayerCount: 2
Fore
SplineSet
287 326 m 1
 275 323 263 322 250 322 c 0
 239 322 227 323 219 323 c 0
 208 323 192 323 176 323 c 0
 160 323 143 323 131 325 c 0
 122 327 105 326 90 328 c 0
 75 329 60 333 57 345 c 0
 50 372 55 387 63 395 c 0
 71 403 82 405 92 407 c 0
 142 415 197 416 244 411 c 0
 255 410 270 409 283 406 c 0
 296 403 309 398 312 389 c 0
 325 351 310 334 287 326 c 1
EndSplineSet
EndChar

StartChar: multiply
Encoding: 215 215 104
Width: 377
Flags: MW
HStem: 226 321
VStem: 28 341 123 155
LayerCount: 2
Fore
SplineSet
363 479 m 0xc0
 359 473 354 468 348 462 c 0
 343 456 336 450 330 442 c 0
 326 436 321 432 315 427 c 0
 310 422 304 417 298 412 c 0
 287 403 279 394 278 386 c 0xa0
 276 350 299 331 322 310 c 0
 335 298 348 285 353 267 c 0
 358 245 340 235 321 229 c 0
 292 220 270 242 250 264 c 0
 241 274 231 286 221 295 c 0
 211 304 201 310 191 310 c 0
 168 311 149 290 135 275 c 0
 129 268 123 262 118 256 c 0
 95 232 71 215 39 251 c 0
 14 279 36 302 61 322 c 0
 74 332 89 342 101 352 c 0
 113 361 122 371 124 381 c 0
 127 395 120 409 109 423 c 0
 97 438 83 450 69 464 c 0
 42 491 26 518 75 544 c 0
 99 556 120 536 139 514 c 0
 149 503 158 491 168 481 c 0
 178 471 188 464 198 462 c 0
 210 459 222 466 236 477 c 0
 242 482 249 488 256 495 c 0
 262 502 269 508 276 515 c 0
 303 540 333 559 361 517 c 0
 372 501 371 490 363 479 c 0xc0
EndSplineSet
EndChar

StartChar: copyright
Encoding: 169 169 105
Width: 402
Flags: MW
HStem: 327 52 412 62 568 79 667 50
VStem: 3 53 78 63 334 59
LayerCount: 2
Fore
SplineSet
265 434 m 0
 259 431 252 429 245 426 c 0
 243 426 242 425 242 425 c 1
 201 398 134 420 108 440 c 0
 66 471 73 549 98 588 c 0
 116 616 153 643 192 648 c 0
 224 652 283 618 273 585 c 0
 263 555 237 572 220 581 c 0
 214 584 208 586 205 587 c 0
 168 590 128 528 145 496 c 0
 160 468 191 472 221 480 c 0
 229 482 236 484 243 485 c 0
 250 487 256 488 261 488 c 0
 273 489 281 485 282 472 c 0
 284 451 275 440 265 434 c 0
174 667 m 0
 130 664 89 622 73 592 c 0
 56 561 49 475 64 441 c 0
 80 403 109 385 161 379 c 0
 217 373 265 388 293 413 c 0
 314 432 334 492 335 523 c 0
 337 618 277 674 174 667 c 0
356 413 m 0
 351 404 345 394 339 385 c 0
 325 366 308 350 281 341 c 0
 229 324 139 317 70 355 c 0
 43 369 7 411 1 446 c 0
 -4 477 0 527 3 560 c 0
 7 601 33 641 50 665 c 0
 74 698 123 715 175 718 c 0
 243 721 334 696 360 651 c 0
 394 590 411 502 371 439 c 0
 366 431 361 422 356 413 c 0
EndSplineSet
EndChar

StartChar: notequal
Encoding: 8800 8800 106
Width: 330
Flags: MW
HStem: 331 61 444 60
VStem: 33 289
LayerCount: 2
Fore
SplineSet
263 336 m 0
 234 332 200 332 175 331 c 1
 161 293 142 255 110 265 c 0
 92 271 99 302 109 332 c 1
 77 335 43 341 37 356 c 0
 21 393 77 394 98 394 c 0
 109 394 120 393 129 392 c 1
 134 405 141 424 148 445 c 1
 140 444 129 443 117 441 c 1
 103 440 89 439 75 440 c 0
 50 441 27 450 34 479 c 0
 40 502 121 504 171 503 c 1
 192 549 216 596 235 589 c 0
 250 583 264 570 253 544 c 0
 248 532 243 518 237 504 c 1
 242 504 l 1
 260 506 287 503 304 495 c 0
 322 487 331 473 311 455 c 0
 304 448 292 446 280 445 c 0
 268 444 254 444 244 445 c 1
 216 445 l 1
 209 427 203 409 197 392 c 1
 224 394 250 396 273 397 c 0
 295 398 327 386 322 362 c 0
 318 346 291 339 263 336 c 0
EndSplineSet
EndChar

StartChar: integral
Encoding: 8747 8747 107
Width: 532
Flags: MW
HStem: -110 91 803 86
VStem: 0 567
LayerCount: 2
Fore
SplineSet
495 740 m 1
 489 747 485 755 481 763 c 0
 476 771 470 780 462 787 c 0
 432 816 405 801 390 783 c 0
 386 779 383 767 380 752 c 0
 377 739 375 724 374 714 c 0
 361 634 339 453 314 284 c 0
 290 115 262 -44 229 -74 c 0
 158 -139 1 -118 0 4 c 0
 0 37 22 67 62 55 c 0
 69 53 74 47 79 39 c 0
 83 32 87 23 91 15 c 0
 99 -3 108 -18 127 -19 c 0
 160 -21 177 1 186 29 c 0
 190 43 193 58 195 72 c 0
 197 87 198 100 200 110 c 0
 211 168 218 228 227 290 c 0
 247 421 270 586 285 725 c 0
 289 763 309 887 388 890 c 0
 450 893 498 876 531 850 c 0
 565 824 584 736 550 726 c 0
 519 717 505 725 495 740 c 1
EndSplineSet
EndChar
